<?xml version="1.0" encoding="UTF-8"?>
<!DOCTYPE svg PUBLIC "-//W3C//DTD SVG 1.1//EN" "http://www.w3.org/Graphics/SVG/1.1/DTD/svg11.dtd">
<!-- Creator: CorelDRAW 2020 (64-Bit) -->
<svg xmlns="http://www.w3.org/2000/svg" xml:space="preserve" width="21.1758in" height="18.8844in" version="1.1" style="shape-rendering:geometricPrecision; text-rendering:geometricPrecision; image-rendering:optimizeQuality; fill-rule:evenodd; clip-rule:evenodd"
viewBox="0 0 10880.38 9703.03"
 xmlns:xlink="http://www.w3.org/1999/xlink"
 xmlns:xodm="http://www.corel.com/coreldraw/odm/2003">
 <defs>
  <style type="text/css">
   <![CDATA[
    .str0 {stroke:#F6C5B4;stroke-width:7.78;stroke-linecap:round;stroke-linejoin:round;stroke-miterlimit:10}
    .fil1 {fill:none;fill-rule:nonzero}
    .fil15 {fill:#FEFEFE}
    .fil18 {fill:#936333}
    .fil16 {fill:#C0B8A0}
    .fil8 {fill:#F6CFB4}
    .fil0 {fill:#FEFEFE;fill-rule:nonzero}
    .fil17 {fill:#2B2A29;fill-rule:nonzero}
    .fil13 {fill:url(#id0)}
    .fil5 {fill:url(#id1)}
    .fil12 {fill:url(#id2)}
    .fil10 {fill:url(#id3)}
    .fil3 {fill:url(#id4)}
    .fil2 {fill:url(#id5)}
    .fil6 {fill:url(#id6)}
    .fil4 {fill:url(#id7)}
    .fil14 {fill:url(#id8)}
    .fil7 {fill:url(#id9)}
    .fil9 {fill:url(#id10)}
    .fil11 {fill:url(#id11)}
   ]]>
  </style>
  <linearGradient id="id0" gradientUnits="userSpaceOnUse" x1="9107.22" y1="2439.63" x2="8674.98" y2="2439.63">
   <stop offset="0" style="stop-opacity:1; stop-color:#7E522F"/>
   <stop offset="0.329412" style="stop-opacity:1; stop-color:#DD9E3F"/>
   <stop offset="0.670588" style="stop-opacity:1; stop-color:#F6AC3F"/>
   <stop offset="1" style="stop-opacity:1; stop-color:#BA8037"/>
  </linearGradient>
  <linearGradient id="id1" gradientUnits="userSpaceOnUse" xlink:href="#id0" x1="2181.57" y1="8103.28" x2="3150.15" y2="8103.28">
  </linearGradient>
  <linearGradient id="id2" gradientUnits="userSpaceOnUse" xlink:href="#id0" x1="9151.35" y1="1641.52" x2="8182.77" y2="1641.52">
  </linearGradient>
  <linearGradient id="id3" gradientUnits="userSpaceOnUse" xlink:href="#id0" x1="7907.06" y1="838.99" x2="6722.45" y2="838.99">
  </linearGradient>
  <linearGradient id="id4" gradientUnits="userSpaceOnUse" xlink:href="#id0" x1="3425.94" y1="8905.89" x2="4610.55" y2="8905.89">
  </linearGradient>
  <linearGradient id="id5" gradientUnits="userSpaceOnUse" xlink:href="#id0" x1="4006.23" y1="8619.63" x2="4917.08" y2="8619.63">
  </linearGradient>
  <linearGradient id="id6" gradientUnits="userSpaceOnUse" xlink:href="#id0" x1="2225.71" y1="7305.18" x2="2657.94" y2="7305.18">
  </linearGradient>
  <linearGradient id="id7" gradientUnits="userSpaceOnUse" xlink:href="#id0" x1="2952.51" y1="8080.95" x2="3727.88" y2="8080.95">
  </linearGradient>
  <linearGradient id="id8" gradientUnits="userSpaceOnUse" xlink:href="#id0" x1="9820.28" y1="2480.64" x2="9062.46" y2="2480.64">
  </linearGradient>
  <linearGradient id="id9" gradientUnits="userSpaceOnUse" xlink:href="#id0" x1="1512.64" y1="7264.24" x2="2270.47" y2="7264.24">
  </linearGradient>
  <linearGradient id="id10" gradientUnits="userSpaceOnUse" xlink:href="#id0" x1="7326.7" y1="1125.24" x2="6415.85" y2="1125.24">
  </linearGradient>
  <linearGradient id="id11" gradientUnits="userSpaceOnUse" xlink:href="#id0" x1="8380.41" y1="1663.92" x2="7605.04" y2="1663.92">
  </linearGradient>
 </defs>
 <g id="Layer_x0020_1">
  <metadata id="CorelCorpID_0Corel-Layer"/>
  <g id="_2489483768704">
   <path class="fil0" d="M10237.29 5485.28c-9.22,-15.77 -32.51,-153.12 5.97,-115.81 32.49,30.8 2.12,82.33 -5.97,115.81zm-3497.19 3990.81c6.73,-5.65 10.48,-8.86 12.48,-10.61 -5.21,1.19 -8.72,1.13 -12.48,10.61zm-5515.11 -6493.07c-0.57,0.95 -0.57,1.92 -1.35,2.66 0.77,-0.74 0.77,-1.71 1.35,-2.66zm8530.02 -369.36c-4.78,-3.07 -9.4,-5.77 -14.02,-8.47 -1.54,3.47 -1.92,6.74 -3.27,10.02 5.77,8.25 11.94,7.89 17.3,-1.55zm-7256.75 -1377.51c5.18,-4.05 10.57,-8.09 16.34,-11.94 8.65,-1.94 14.62,-6.15 18.66,-12.69 10.01,-8.67 -9.44,5.2 -18.66,12.69 -10.59,0.95 -16.34,5 -16.34,11.94zm4259.14 8227.83c-1.57,0.67 -3,1.08 -4.33,1.4l-0.49 0.11 4.82 -1.51zm-4.82 1.51c3.79,-3.31 1.22,-1.24 0.49,-0.11 -0.54,0.81 -0.11,1.13 4.33,-1.4l-4.82 1.51zm-12.48 10.61c-6.56,5.2 -12.53,11.94 -15.96,20.39 5.36,-7.3 10.75,-13.84 15.96,-20.39zm-4438.07 -8045.3c-4.82,-7.28 -9.22,-8.06 -14.03,-2.1 1.35,3.27 3.45,6.15 4.8,9.62 3.05,-2.3 6.53,-5 9.22,-7.52zm4617.93 -1083.58c-6.75,-14.04 -2.32,-11.34 -24.81,-5.39 17.3,15.98 11.9,15.41 24.81,5.39zm3374.47 4405.73c5.76,-8.83 4.03,-12.87 -5.4,-12.87 -6.15,8.09 -4.04,12.1 5.4,12.87zm-7734.05 -3536.81c-6.54,-1.15 -14.04,-2.7 -20.57,-3.85 15.95,11.92 11.33,12.68 20.57,3.85zm3507.79 8423.08c4.78,1.17 9.21,2.52 14.03,3.47 -0.77,-9.44 -5.4,-10.59 -14.03,-3.47zm-3846.53 -1145.72c2.1,-5 11.9,-2.5 2.7,-6.72 -9.84,-4.64 -1.35,2.1 -2.7,6.72zm1623.17 974.53c4.62,-1.55 11.9,5.56 6.72,-2.5 -6.15,-8.67 -2.1,0.57 -6.72,2.5zm5637.06 -7550.71c9.22,0.57 11.92,-3.87 8.08,-12.71 -14.04,0.57 -4.82,5.97 -8.08,12.71zm-5053.26 7772.11c-1.92,9.22 1.17,12.12 10.61,8.29 2.1,-9.64 -1.35,-12.34 -10.61,-8.29zm2399.76 -20.39c2.7,-2.3 5.39,-4.82 7.9,-7.32 -14.06,-5.97 -5.2,0.97 -7.9,7.32zm1981.55 -1049.74c-4.05,6.54 -7.48,13.48 -11.52,20.19 17.3,2.5 11.52,5.02 23.46,-18.64 -4.05,-1.55 -7.89,-2.12 -11.94,-1.55zm1732.26 -3495.84c4.03,-1.55 8.07,-3.09 11.92,-4.62 -21.16,-6.74 -25.21,-5.02 -11.92,4.62zm-411.67 -2413.81c-1.73,-2.7 -4.42,-5.2 -6.54,-7.89 -3.27,19.62 1.35,6.94 6.54,7.89zm-9702.13 1778.99c2.12,-2.7 4.05,-5.57 6.17,-8.47 -2.7,-0.2 -6.17,-1.15 -8.86,-1.55 0.77,3.47 2.12,6.94 2.69,10.02zm10009.72 1783.23c2.52,-2.32 5.21,-4.82 7.89,-7.14 -2.68,-1.35 -4.42,-2.09 -7.12,-3.43 -0.77,3.43 -0.77,7.1 -0.77,10.57zm-1610.46 -5383.93c-5.2,6.74 -3.08,10.21 5.37,10.98 7.32,-10.41 -1.35,-5.59 -5.37,-10.98zm857 856.98c-1.35,-12.3 0,-4.59 -3.47,-10.95 -3.85,2.89 -2.5,6.94 3.47,10.95 -3.47,11.56 -0.77,17.93 9.4,19.45 -3.47,-6.35 -6.74,-12.71 -9.4,-19.45zm-6160.12 7594l-0.04 -0.23 -0.04 -0.18c-0.36,-4.46 11.65,-2.71 -0.32,-5.34 -10.97,-2.05 -0.69,1.11 0.32,5.34l0.04 0.18 0.04 0.23zm6669.1 -6100.66l-0.14 -0.2c-2.47,-3.61 0.05,-12.55 -4.48,-5.93 -4.55,7.15 1.71,2.25 4.48,5.93l0.14 0.2zm30.98 1385.43c6.15,10.59 13.27,-1.17 14.62,-5.97 -5.2,-1.74 -10.57,-3.09 -15,-4.62 0,3.65 0,6.74 0.38,10.59zm-6339.4 -4254.36c-5.97,-5.4 -11.15,-4.42 -15.19,3.07 5.79,4.82 11.15,4.04 15.19,-3.07zm4922.04 700.21c15.21,29.24 24.43,-13.27 27.13,-14.62 -1.35,0.4 -42.5,-13.66 -27.13,14.62zm-8277.26 2968.2c-2.12,3.47 -3.47,6.94 -4.82,10.57 4.82,1.35 9.22,2.7 14.62,3.65 3.47,-9.98 0,-14.42 -9.8,-14.22zm7717.09 5034.58c0,9.82 4.82,13.49 14.06,10.79 -2.12,-19.63 -8.67,-8.09 -14.06,-10.79zm137.35 -86.75c-1.35,6.35 -3.47,12.68 -5.2,18.84 44.25,-16.14 8.47,-24.43 5.2,-18.84zm-5469.51 -8198.79c-3.27,2.12 -5.77,4.05 -9.22,5.76 10.57,6.94 5.18,-0.74 9.22,-5.76zm3633 8776.65c-0.58,-4.03 8.67,-7.68 -1.35,-5.18 -9.8,2.3 0.77,1.15 1.35,5.18zm-5671.5 -5710.15c18.46,-5.02 18.07,0.18 12.71,-25.21 -12.71,5.58 -16.76,14.24 -12.71,25.21zm2852.39 -3494.11l-0.22 0.09c-4.6,1.58 -10.86,-6.31 -5.75,2.61 4.55,9.06 1.46,-0.47 5.75,-2.61l0.22 -0.09zm4716.59 291.04c-5.36,-0.39 -10.56,-1.55 -15.95,-2.12 1.92,3.27 3.27,6.74 5.39,9.8 3.27,-2.28 7.12,-4.98 10.56,-7.68zm1797.87 6169.92c5.19,-4.05 10.57,-7.52 15.94,-11.36 -2.68,-1.55 -5.97,-2.7 -9.4,-3.47 -1.73,5.02 -3.85,10.02 -6.54,14.83zm-705.61 -5328.12c-26.16,-21.38 -39.23,6.13 -10.18,22.49 3.43,-6.92 8.83,-15.21 10.18,-22.49zm-8930.93 1510.64c0,3.45 24.04,0 4.62,-10.41 -1.35,3.47 -2.7,6.74 -4.62,10.41zm-320.68 2887.77c1.35,6.35 2.7,13.07 4.05,19.04 3.07,-0.2 5.77,-0.77 9.24,-1.55 -4.05,-21.74 0.57,-20.39 -13.29,-17.49zm5588.02 3779.98c2.7,5.95 5.4,12.3 7.12,18.46 12.69,-9.04 10.57,-18.07 -7.12,-18.46zm-3623.78 -8552.37c-14.04,0 -23.25,6.74 -27.69,20.97 12.3,-3.85 18.47,-11.15 27.69,-20.97zm7935.84 5804.05c-2.48,6.72 -4.41,13.47 -6.53,19.99 28.64,1.15 32.69,-6.13 6.53,-19.99zm-2020.41 2210.87c19.04,7.88 14.62,10.37 29.8,-12.34 -14.6,-3.27 -24.4,0.59 -29.8,12.34zm-446.08 -8581.05c-11.94,-20.39 -18.68,-27.89 -41.19,-37.11 9.44,27.9 13.29,30.19 41.19,37.11zm-5373.93 745.23c-24.63,3.65 -29.04,8.67 -42.32,30.98 21.74,-6.17 26.56,-14.26 42.32,-30.98zm7664.21 1132.84l0.21 0.49 7.88 17.58c16.52,57.34 23.27,143.71 71.56,179.67 -12.52,-62.71 -45.6,-120.79 -71.56,-179.67 -3.69,-12.37 -6.74,-16.36 -7.88,-17.58 -0.52,-0.58 -0.65,-0.54 -0.21,-0.49zm-1.93 -3.67c-10.57,-29.02 -20.58,-57.7 -31.16,-86.95 -24.43,15.19 13.27,69.65 31.16,86.95zm-8881.51 4480.58c-22.69,-29.83 -45.2,-59.24 -67.71,-88.68 0,-4.24 -1.35,-5.21 -3.45,-9.24 20.57,-107.34 -30.58,-179.1 -106.57,-245.46 35.76,82.15 66.74,165.63 106.57,245.46 -1.35,4.03 -0.59,6.92 3.45,9.24 -1.35,46.15 24.44,74.26 67.71,88.68zm9202.38 -586.9c19.04,-13.07 21.14,-13.07 17.3,-35.78 -15.95,7.1 -21.34,19.04 -17.3,35.78zm-10096.67 -726.19c3.47,11.74 8.83,22.31 16.72,31.55 15.19,-33.86 14.62,-35.98 -6.15,-67.32 -5.75,11.53 -9.22,23.27 -10.57,35.76zm6540.59 -5271.2c13.67,2.32 27.71,2.12 41.57,-0.97 -23.86,-27.87 -23.86,-32.09 -59.66,-26.52 4.05,10.57 10.02,19.62 18.09,27.49zm-6265.32 3541.27c1.75,7.68 5.18,14.6 10.57,20.39 5.77,-2.89 18.47,-13.88 22.51,-19.24 -6.74,-10.79 -30.4,-25.78 -33.08,-1.15zm5135.95 5833.08c17.91,8.65 35,8.05 52.32,-1.55 -17.89,-6.74 -35.01,-6.17 -52.32,1.55zm2434.77 -8921.53c-13.09,-6.71 -27.13,-11.52 -41,-14.6 15.98,38.66 18.48,37.31 60.23,40.58 -4.62,-9.8 -11.17,-18.84 -19.24,-25.98zm-4339.37 -328.75c10.57,-8.07 19.81,-17.69 26.92,-29.23 -33.46,-8.47 -35.01,-8.47 -57.52,17.69 9.44,6.54 19.24,10.39 30.6,11.54zm6728.34 5703.23c-0.57,8.47 0,16.56 2.12,24.81 8.09,-22.49 14.62,-34.81 11.15,-58.65 -4.41,11.33 -9.22,22.49 -13.27,33.84zm-9368.57 -2943.74c41.57,1.73 34.43,-8.86 37.52,-47.7 -33.1,14.02 -39.63,10.55 -37.52,47.7zm1489.69 -2338.97c-37.15,10.77 -42.34,26.36 -61.76,58.49 37.9,-16.95 47.7,-20.23 61.76,-58.49zm4135.85 8790.12c-12.33,0.38 -23.86,3.85 -34.45,10.39 25.98,35.96 26.56,34.43 69.83,21.54 -10.59,-12.32 -22.11,-22.89 -35.38,-31.93zm-4615.61 -8141.64c42.31,-17.15 55.77,-37.72 77.31,-77.35 -33.66,24.04 -62.12,37.31 -77.31,77.35zm8.45 6884.93c-7.87,38.46 7.89,41.16 38.48,66.17 11.92,-38.28 -8.47,-42.9 -38.48,-66.17zm-823.12 -1134.39c-14.64,-11.92 -29.05,-23.86 -43.67,-35.76 6.52,23.46 18.46,98.08 51.15,100.58 35.8,2.52 1.35,-46.55 -7.48,-64.82zm-980.7 -1157.08c3.87,11.17 11.36,20.39 20.59,28.09 21.16,-49.63 21.74,-54.25 -6.53,-99.84 -5.4,23.86 -12.71,47.14 -14.06,71.76zm2158.54 -5136.9c-48.47,-3.07 -52.52,-5.57 -86.18,30.57 39.82,21.94 51.75,-3.07 86.18,-30.57zm902.57 -395.5c13.85,-13.47 27.13,-27.13 41.18,-40.78 -51.76,11.72 -98.12,16.72 -131.38,62.7 36.53,5.02 56.35,-7.5 90.2,-21.92zm4406.32 -147.34c-40.4,-48.29 -72.91,-61.76 -62.32,16.54 20.77,-5.4 41.93,-10.99 62.32,-16.54zm-605.76 9062.51c-21.74,7.48 -34.43,17.3 -53.1,30.57 45.98,4.24 85.78,2.89 112.74,-35.76 -25.21,-5.02 -35.01,-1.17 -59.64,5.2zm-6467.31 -6297.29c-23.28,46.57 -27.71,96.39 -35.8,146.98 29.63,-58.29 56.96,-111.19 56.19,-177.55 -7.13,9.6 -13.86,19.81 -20.39,30.57zm3433.32 6353.24c-49.44,-23.07 -109.07,-25.77 -161.58,-39.23 49.05,25.98 125.81,65.02 182.37,61.17 -5.39,-8.45 -12.69,-15.57 -20.79,-21.94zm-3591.83 -5861.17c0,15.79 4.05,30.4 11.33,43.87 48.29,-30.98 40.4,-40.4 29.25,-93.3 -13.27,15.59 -31.76,30.19 -40.58,49.43zm1815.9 4888.38c-13.83,-8.25 -58.85,-37.69 -68.09,-20.77 -6.13,10.01 19.06,45.97 28.28,53.29 43.67,33.06 122.75,19.04 39.81,-32.53zm-1200.9 -1497.37c0,-10.57 35.19,11.17 19.42,-43.28 -13.29,-42.52 -39.27,-82.71 -55.21,-124.65 -61.56,70.81 36.55,100.99 35.79,167.93zm1806.1 -6407.87c8.45,-8.29 15.77,-17.49 22.51,-27.51 -42.5,0.77 -109.48,64.04 -133.88,50.4 -32.72,30.21 -64.48,60.59 -96.77,90.8 72.13,-35.22 141.77,-66.94 208.13,-113.69zm-2639.85 3298.49c7.52,-51.19 14.64,-102.52 21.93,-153.51 -33.06,117.73 -45.78,202.76 -58.27,324.7 12.5,-56.73 27.89,-113.88 36.34,-171.19zm10213.84 1828.23c-10.59,56.56 -23.09,112.52 -26.54,169.48 41.15,-107.74 51.73,-230.27 67.51,-344.33 -11.74,48.47 -50.22,133.88 -40.98,174.85zm-1032.62 -3600.12c-5.2,48.1 53.09,76.56 85.78,97.34 -2.09,-70.21 -20,-117.35 -67.71,-169.08 -5.93,23.86 -15.38,47.11 -18.07,71.74zm-2509.03 7256.59c0,1.93 -84.06,39.25 -98.47,45.2 -76.38,31.93 -188.32,43.85 -247.95,98.3 66.74,11.56 140.59,-30.98 203.32,-54.05 73.66,-26.72 145.8,-55.02 218.13,-85.8 1.93,0 4.05,0 5.97,0 17.89,-23.09 57.7,-45.6 84.26,-65.02 -1.35,1.73 -3.47,3.27 -4.82,4.82 126.02,-54.64 241.99,-125.63 366.66,-184.67 62.32,-30.21 143.7,-35.01 200.05,-71.58 53.69,-35.38 89.45,-58.85 147.76,-77.69 25.17,-8.09 18.07,0.77 39.23,-15.21 9.22,-7.3 15,-23.48 27.13,-32.31 9.22,-6.92 44.43,-21.92 56.35,-23.86 27.91,-4.23 40.98,15.19 66.17,15.39 55.04,1.15 139.27,-47.9 182.94,-77.13 65.02,-43.49 119.85,-103.12 178.13,-154.48 -1.73,0.97 -3.85,2.32 -5.77,3.47 56.94,-48.67 141,-76.36 207.36,-113.49 188.91,-105.79 355.89,-253.16 512.86,-401.47 76.36,-72.33 150.62,-147.92 222.77,-225.25 68.86,-73.68 143.86,-135.42 216.78,-204.86 80.8,-77.92 125.05,-165.65 172.75,-265.28 44.63,-93.1 98.1,-138.5 184.26,-185.45 -34.99,93.69 -84.81,172.36 -136.58,258.55 31.37,-39.84 417.64,-536.32 328.19,-593.64 -41.73,-27.13 -97.54,25.21 -79.45,-48.1 17.71,-72.33 84.07,-150.42 119.85,-215.28 18.64,-32.49 37.11,-90.4 69.63,-113.88 26.54,-19.02 60.2,-17.1 85.4,-42.31 41.16,-40.58 56.37,-118.86 65.02,-172.54 -66.94,63.07 -159.09,130.98 -197.57,214.84 -35.76,77.73 -74.63,222.21 -160.81,256.45 -3.47,-26.56 9.24,-33.08 14.44,-57.72 5.95,-26.54 2.68,-27.11 3.25,-54.64 2.12,-51.94 21.18,-83.46 41,-130.03 22.69,-50.6 24.04,-95.03 53.07,-142.74 32.7,-54.43 63.11,-110.02 91,-166.94 117.14,-241.43 189.49,-501.12 228.33,-766.21 -22.49,22.49 -60,42.52 -70.21,74.45 -46.35,137.92 -74.04,296.44 -142.13,425.5 -6.74,-69.64 20.19,-141.36 36.14,-210.04 11.92,-53.67 16.74,-129.29 39.25,-173.72 -6.52,-60.59 11.17,-153.89 15.99,-224.1 4.4,-76.54 0,-147.15 35.76,-215.44 35.01,-66.36 16.34,-137.55 28.28,-210.45 11.92,-74.83 37.13,-147.15 52.5,-221.41 -85.98,0 -173.13,0 -259.11,0 0,-63.09 -1.93,-126.4 -4.62,-189.49 -1.35,-31.34 -3.47,-62.71 -5.4,-94.27 -1.15,-15.77 -7.86,-48.46 -4.62,-62.12 2.52,-9.22 21.96,-16.54 22.51,-27.13 2.12,-47.32 -25.75,-89.83 -27.87,-141.18 -1.92,-66.36 -14.63,-130.25 -17.13,-195.66 -2.68,-54.23 23.26,-87.33 5.97,-136.58 -17.89,-51.15 -23.29,-41.55 17.29,-77.31 16.38,-15.03 27.91,-0.39 26.93,-27.9 -1.15,-31.75 -23.09,-8.27 -33.64,-26.74 -23.28,-39.83 34.61,-25.59 37.69,-65.21 3.47,-41.16 -61.55,-11.72 -78.29,-43.85 -5.77,-11.56 1.33,-32.9 4.03,-44.44 3.47,-16.52 39.27,-60 39.27,-67.89 0.57,-26.18 -53.89,-29.45 -56.39,-70.03 -0.57,-19.04 15.39,-37.69 21.94,-54.64 11.94,-31.91 17.69,-61.94 17.3,-95.98 -4.78,-135.03 -62.32,-285.67 -102.9,-413.97 -43.65,-140.04 -94.07,-278.37 -152.92,-412.44 -43.85,-100.6 -96.76,-196.02 -151.21,-290.27 -29.03,-50.6 -56.94,-105.99 -99.45,-145.8 -15.78,72.31 17.89,153.31 31.14,225.25 -19.04,-70.21 -39.81,-30.4 -86.16,-19.06 -53.08,12.71 -56.94,-32.69 -79.43,-78.66 -34.65,-70.61 -70.81,-139.47 -109.27,-207.58 -25.98,-46.93 -55.21,-91.18 -82.15,-136 -18.08,-30.21 -22.71,-75.41 22.89,-54.43 42.51,19.62 81,89.65 109.64,123.69 32.33,-32.13 -36.53,-121.58 -67.71,-138.7 -51.53,-29.25 -143.1,-51.17 -160.44,-112.16 69.64,27.9 83.7,75.23 149.86,10.41 -38.49,-33.3 -78.1,-59.46 -101.57,-105.63 -42.9,-88.28 -70.81,-185.03 -117.91,-272.2 -56.19,-105.79 -224.52,-202.36 -322.02,-265.83 15.37,29.06 28.64,59.06 42.31,89.25 47.15,-24.81 36.55,49.25 29.25,70.61 -60.23,-55.97 -126,-80.41 -143.69,-166.6 -10.02,-46.53 -5.4,-46.91 -53.11,-70.97 -45.01,-23.09 -44.43,-18.68 -47.13,-68.86 29.05,6.9 57.71,15 86.2,23.27 3.43,-39.25 25.17,-101.57 -21.16,-122.73 -24.44,-10.57 -70.21,13.45 -89.47,-4.05 -16.72,-15.37 -3.43,-45.6 -2.09,-64.44 3.43,-58.27 -10.61,-102.32 -36.37,-153.89 -7.88,21.16 -14.42,43.87 -25.98,64.06 -8.45,16.92 -45.6,44.63 -49.45,60.2 -8.83,36 42.92,66.36 39.65,103.31 -5.97,55.2 -35.2,33.46 -67.52,17.49 -32.72,-16.14 -72.33,-20.57 -101.59,-42.7 -35.76,-26.93 -48.09,-72.33 -82.13,-102.72 -45.01,-41.37 -98.69,-75.41 -149.09,-111.19 -36.54,-25.96 -270.28,-209.66 -296.22,-151.19 -14.64,32.51 51.15,54.24 71.54,71.76 44.43,38.46 79.65,87.13 124.08,125.59 90.6,77.93 188.72,147.18 280.29,223.73 44.43,37.34 87.33,75.8 127.91,117.73 20.39,20.77 100.8,86.75 98.12,117.16 -4.05,55.99 -67.55,9.04 -90.04,-5.39 -38.66,-24.24 -73.09,-61.94 -123.31,-48.87 5.22,13.48 10.58,27.33 15.77,40.82 -66.16,-51.19 -133.88,-100.81 -202.16,-148.53 69.63,27.13 52.52,-31.14 16.72,-65.97 -36.74,-36.36 -89.63,-49.07 -139.26,-55.97 11.15,25.17 26.54,49.03 45.22,69.26 -36.77,-23.86 -73.11,-46.95 -109.67,-70.23 18.68,-0.57 37.14,-1.35 55.79,-1.92 -46.35,-16.74 -42.88,-73.48 -88.86,-100.22 -11.94,-6.94 -119.28,-46.95 -121.98,-31.54 -3.07,19.42 28.68,34.04 27.33,56.92 -62.33,-35.96 -124.65,-70.41 -188.14,-103.29 -57.89,-30.4 -141.95,-54.82 -193.12,-94.82 -35.78,-28.48 -49.45,-59.66 -99.29,-65.79 -5.36,4.22 -10.55,9.02 -15.95,13.25 -15.19,-6.74 -30.98,-12.87 -46.95,-19.62 -45,-18.46 -45,-21.16 -59.62,-66.74 -21.16,34.81 -6.54,32.33 -49.82,23.09 -25.21,-5.39 -50.99,-19.24 -74.85,-28.28 -55,-20.21 -110.8,-39.63 -166.37,-57.89 19.81,-5.39 19.81,-11.94 -4.62,-18.66 0,5.38 -0.58,11.15 -1.17,16.74 -340.09,-110.24 -694.04,-181.79 -1051.09,-212.38 -175.05,-15 -351.23,-18.29 -525.71,-31.74 -83.5,-6.74 -165.63,-5 -249.68,0 -23.29,0.77 -219.52,4.21 -193.54,50.77 -31.34,3.85 -61.74,7.5 -92.72,12.12 19.83,-43.66 -86.95,-45.58 -24.63,2.89 -309.51,45.78 -615.17,123.11 -909.28,230.47 -35.8,13.05 -74.26,19.42 -107.36,27.87 -11.92,-8.45 -20.39,-7.1 -25.17,4.05 -5.39,5.19 -9.26,11.74 -12.53,19.04 -55.18,29.24 -128.49,57.52 -191.58,86.18 -62.34,27.89 -98.12,45.58 -161.01,52.12 -43.67,4.82 -70.21,4.05 -104.09,29.05 -29.22,20.97 -54.43,55.77 -77.51,82.71 11.15,-4.05 22.51,-7.28 34.43,-10.18 -86.75,47.32 -170.81,98.1 -254.33,150.62 24.43,-23.09 42.92,-47.9 62.73,-74.45 -94.07,-8.25 -202.74,69.64 -284.14,115.04 -22.12,12.14 -49.82,23.09 -69.83,38.66 -46.15,35.8 -32.11,92.52 28.68,99.47 -19.24,14.02 -37.89,28.86 -56.92,42.13 -21.16,14.24 -9.24,-6.72 -22.51,2.7 -16.76,11.17 3.06,9.44 4.6,10.79 -506.87,386.84 -933.73,877.17 -1246.51,1432.71 1.9,-34.04 -45.78,39.45 -49.07,44.62 -19.42,29.43 -34.43,62.54 -51.17,94.07 -35.76,67.71 -71.56,134.65 -103.47,204.49 15.95,-13.07 31.34,-26.36 47.31,-39.63 -10.77,21.56 -19.82,43.48 -30.01,65.02 -2.7,-9.82 -7.12,-18.84 -13.86,-26.74 -19.81,24.81 -47.68,49.45 -56.92,81 -10.59,35.76 10.57,59.44 7.9,90.42 -3.85,42.11 -38.3,96.53 -52.92,136 -7.5,19.99 -14.02,41.16 -22.12,60.77 -6.51,15.3 -24.79,32.89 -30.31,46.14l-0.09 0.23 0.09 -0.23c2.03,-3.95 2.59,30.69 2.03,35.42 -3.47,31.55 -27.31,53.87 -35.76,81.95 -11.36,41.17 -18.08,87.35 -30.6,130.23 -17.89,-21.54 -27.71,-13.29 -51.57,-4.62 16.38,22.31 19.07,29.45 47.72,20.19 -26.55,93.12 -49.82,186.99 -70.21,281.83 -3.45,14.8 -15.39,123.29 -25.96,127.14 -23.07,8.86 -49.05,-43.46 -57.72,-57.5 -56.92,116.17 -59.62,284.5 -73.68,411.65 -15.77,148.51 -27.69,298.36 -26.36,447.84 0.77,144.45 -4.6,289.69 -1.33,434.14 0.77,37.72 5.95,70.21 17.11,105.81 8.08,24.06 23.48,43.28 14.62,69.64 -15,45.6 -45.6,8.27 -46.95,68.3 -2.7,198.12 41.17,413.75 84.09,606.89 20.57,93.89 63.67,166.01 104.25,252.78 6.54,13.07 23.66,36.93 18.46,52.88 -7.32,20.39 -33.86,12.71 -35.2,42.7 -0.58,15.21 14.62,29.45 19.24,43.48 10,27.33 9.42,60.04 13.85,88.68 9.24,-32.11 20.76,-64.04 31.75,-95.78 48.67,60.2 83.09,109.64 116.76,177.35 25.94,51.19 62.32,161.6 117.91,165.06 -4.6,-10.2 -3.25,-23.84 -9.22,-33.68 42.31,20.97 35.76,87.15 65.79,126.38 16.34,22.11 42.31,29.43 59.62,48.67 17.12,19.24 27.71,55.41 40.21,78.68 52.52,99.83 108.7,198.34 168.33,294.53 118.69,191.38 251.23,374.32 396.26,546.9 292.41,347.59 635.77,652.29 1014.75,901.8 381.07,250.26 797.91,444.36 1235.35,573.81 118.5,35.6 228.54,90.22 350.48,119.66 133.92,31.75 270.47,49.25 406.28,67.14 290.3,37.88 591.14,45.58 883.33,24.04 213.35,-15.95 424.96,-42.7 635.59,-79.24 83.69,-14.64 167.55,-30.78 250.66,-49.64 55.59,-12.89 117.91,-40.22 175.43,-41.53 16.74,-0.2 31.73,-0.2 47.12,9.03 19.99,11.94 25.79,57.71 39.07,64.44 26.52,12.32 35.76,-22.31 53.85,-27.11 17.12,-4.42 65.39,23.07 51.55,29.41 -23.84,-1.15 -54.24,-1.73 -75.03,-3.65zm457.46 -9131.97c17.87,43.48 113.29,30.22 143.89,29.05 -14.06,-25.39 -79.65,-147.92 -125.45,-123.49 -11.13,5.75 -4.42,28.26 -10.56,37.31 0.72,-1.24 -30.58,37.63 -34.63,34.11 -0.36,-0.32 -0.51,-0.95 -0.4,-2 -0.07,0.63 0.07,1.31 0.4,2 3.23,6.87 24.29,16.22 26.73,23.01zm1141.12 127.75c51.15,45.02 104.07,111.39 169.08,133.5 -11.34,-80.03 -141.79,-158.69 -202.19,-209.11 -24.43,-20.19 -84.06,-54.84 -69.63,2.12 9.44,35.76 74.83,57.5 102.74,73.48zm-5011.51 -4.8c47.7,17.49 48.47,-35.03 56.36,-66.18 -67.51,-3.85 -105.43,27.71 -165.63,48.87 -56.35,19.99 -88.68,20.59 -122.71,73.27 74.24,-17.3 153.89,-83.86 231.98,-55.95zm-1619.71 1269.02c-51.57,45.2 -112.54,88.68 -156.39,142.92 -24.44,30.21 -26.56,91.37 30.56,66.38 32.53,-13.66 81.57,-91.18 102.74,-113.11 13.85,-14.64 45.2,-40.6 49.63,-59.46 4.04,-14.8 1.35,-60.58 -26.54,-36.73zm8494.26 3890.21c-2.12,14.22 3.08,-9.06 4.05,-13.09 21.16,-67.71 40.96,-134.08 54.25,-204.11 11.92,-66.74 42.52,-154.27 0.59,-209.86 -42.54,60.02 -29.25,164.46 -37.15,240.07 -5.79,58.09 -11.92,116.19 -17.69,173.9 -6.17,5.77 -7.51,10 -4.05,13.09zm-788.11 -3877.34c17.3,16.94 16.72,-15.75 35.76,-11.52 28.68,6.53 41.19,41.17 55.61,63.67 33.26,50.22 67.14,100.02 105.97,146 -6.51,-80.98 -80.78,-269.3 -165.6,-292.96 -26.95,-7.1 -79.47,-18.66 -96.77,10.39 -23.86,40.98 43.66,62.89 65.02,84.43zm-2549.41 -1549.1c71.56,5 170.23,31.54 237.35,3.47 -50.38,-41.19 -67.12,-11.94 -128.68,-15.21 -84.83,-3.87 -94.07,-67.71 -143.89,-117.35 -31.72,-31.72 -136.58,-79.44 -147.15,-17.69 -11.17,64.06 138.7,121 182.37,146.79zm-5322.38 7871.2c-21.15,-23.86 -144.45,-149.86 -127.14,-170.83 -90.8,-110.61 -161.78,-242.37 -265.65,-340.31 58.28,140.64 159.09,267.58 251.04,388.2 46.35,61.17 95.4,120.23 145.8,178.51 46.37,54.46 90.02,116.98 155.81,147.76 -30.57,-77.92 -104.62,-139.67 -159.86,-203.33zm8511.98 -3962.92c-1.92,111.19 -11.94,223.33 -23.86,334.14 -5.97,54.07 -19.04,110.02 -19.99,164.28 -0.4,35.96 15.95,96.77 55.77,48.87 24.61,-30.03 20.57,-124.28 25.19,-159.86 7.91,-59.26 15.97,-118.88 20.59,-178.9 4.04,-53.49 7.32,-107.73 11.16,-161.78 4.8,-74.26 25.21,-176.2 6.15,-246.99 -12.7,-47.72 -41.93,-56.19 -59.62,-7.14 -8.86,23.66 -10.01,40.78 -11.92,64.44 -2.7,47.32 -2.12,95.42 -3.47,142.94zm-1257.12 -3156.54c61.01,67.71 121.97,136.4 178.9,207.38 20,25.39 113.31,173.92 133.11,157.74 37.92,54.84 52.53,112.54 117.55,133.3 3.85,-66.94 -55.2,-111.37 -91.57,-168.88 -47.13,-73.11 -105.42,-136.2 -161.21,-203.14 -60.02,-73.29 -119.24,-147.94 -179.48,-221.01 -51.15,-61.98 -100.2,-136.78 -159.66,-190.26 -16.54,-14.82 -42.5,-35.78 -66.94,-25.78 -37.13,14.83 -19.24,32.9 -3.83,55.99 22.51,34.23 50.75,63.09 78.66,92.52 51.57,54.05 103.31,108.29 154.47,162.14zm-5046.68 -595.55c18.46,14.24 26.52,35.98 51.73,40.78 19.82,4.05 64.44,-19.04 81.58,-24.61 71.54,-23.09 143.68,-43.48 216.59,-61.36 117.93,-29.06 264.7,-29.44 372.43,-89.45 -99.26,-30.78 -225.83,-1.35 -329.14,9.8 -95.42,9.82 -193.52,21.36 -287.59,41.57 -35.4,7.68 -171.02,32.89 -105.6,83.28zm6266.08 3304.08c-6.13,73.27 7.89,150.42 69.45,197.92 68.47,-174.08 31.36,-361.05 -9.22,-537.26 -39.07,-174.3 -90.6,-384.16 -190.06,-533.45 -14.62,70.79 9.24,121.38 25.78,191.42 17.1,71.95 35.19,143.3 51.17,215.24 34.81,152.76 61.35,308.77 52.88,466.13zm-9417.22 -760.82c84.83,-162.36 169.66,-324.32 262.95,-481.29 118.11,-197.96 247.39,-403.59 411.85,-566.91 135.05,-134.25 273.55,-264.9 406.87,-401.29 30.98,-31.52 61.35,-62.89 92.72,-94.23 42.88,-42.72 103.28,-82.15 113.09,-143.12 -83.46,1.35 -158.89,99.47 -218.71,154.07 -75.41,69.46 -148.32,141.21 -219.12,215.47 -140.41,147.72 -271.23,305.07 -391.82,469.17 -117.16,158.89 -225.27,324.5 -322.04,496.1 -41.16,73.11 -72.91,146.57 -103.85,214.68 -42.54,93.68 -93.69,188.52 -110.06,290.48 30.39,-49.05 53.47,-101.01 78.11,-153.14zm6400.57 -2411.49c-19.82,-10.21 -35.8,-10.21 -57.72,-6.94 19.8,12.91 36.55,18.46 57.72,6.94zm3336.18 4388.24c3.09,10.75 9.24,21.34 13.68,31.72 6.13,-7.86 11.9,-22.31 14.03,-31.72 -8.67,0 -19.82,-1.73 -27.71,0zm-398.96 742.14c-3.47,-9.82 -6.75,-19.81 -9.44,-29.43 15.98,19.04 30.6,24.43 9.44,29.43zm-10.02 767.35c-12.5,39.23 -32.49,75.21 -49.25,112.14 14.26,-82.51 35.8,-146.18 67.71,-222.56 -4.41,37.11 -6.71,74.83 -18.46,110.42zm-101.35 -352.98c-10.01,10.75 -21.94,18.07 -36.57,21.92 2.12,-23.84 5.2,-46.35 23.86,-62.34 7.89,12.51 11.94,26.16 12.71,40.42zm-80.82 1275.55c-14.6,-9.2 -29.22,-18.84 -43.86,-28.07 23.09,7.88 43.86,5.37 43.86,28.07zm-64.44 -203.51c4.82,-1.92 6.57,-11.72 7.32,-2.7 0.59,9.04 -2.1,0.57 -7.32,2.7zm-34.41 166.21c-79.65,110.24 -162.36,207.96 -255.08,307.78 -14.04,15.01 -103.29,128.9 -105.99,51.37 -1.35,-39.43 87.52,-68.68 39.83,-96.19 64.04,-52.5 131.18,-100 186.02,-162.56 49.82,-56.73 92.72,-116.35 149.25,-166.37 -4.03,20.57 -0.95,47.7 -14.03,65.97zm-387.63 445.51c-37.11,38.85 -75.01,77.15 -114.84,112.93 33.26,-43.48 63.09,-108.89 112.16,-135.25 3.27,7.52 4.03,14.64 2.68,22.31zm-206.21 208.93l1.13 -1.1 0.09 -0.11c25.55,-25.21 50.34,-50.36 75.16,-75.37 -15.72,27.6 -51.28,52.41 -75.16,75.37l-0.09 0.11 -1.13 1.1zm-78.3 162.16c-15,26.36 -19.82,-19.99 -18.46,-19.04 3.47,4.03 34.45,-7.89 18.46,19.04zm-2229.31 1318.65c-7.12,-5.56 -6.74,-10.18 3.47,-12.87 -0.77,0.2 13.27,7.52 -3.47,12.87zm-5953.89 -3118.42c4.04,13.29 8.85,26.16 13.29,39.25 -7.89,-11.16 -11.18,-25.01 -13.29,-39.25zm43.29 310.87c-18.68,-11.36 -18.68,-11.36 -11.36,-31.75 17.89,5.59 21.93,16.14 11.36,31.75zm-96.77 -452.82c0,-10.59 1.92,-21.16 3.09,-31.75 10.75,38.28 20.76,75.8 32.68,113.69 -11.92,-21.93 -38.48,-55.2 -35.78,-81.93zm-91.37 -17.14c-22.69,-26.54 -51.17,-42.7 -32.71,-74.24 18.68,26.74 49.05,42.7 32.71,74.24zm-49.83 -739.64c-24.05,-125.61 -84.05,-256.41 -31.17,-382.04 30.6,40.78 17.33,137.15 20.41,188.34 4.8,67.52 10.77,135.03 18.09,202.74 -2.12,-2.88 -4.82,-6.17 -7.32,-9.04zm-5.97 495.72c0.58,-3.27 0.58,-6.92 1.35,-10.57 9.82,7.88 1.35,5.55 -1.35,10.57zm-25.94 -86.75c-5.79,-2.52 -11.18,-5.79 -16.38,-8.67 8.49,-10.38 17.12,-9.22 26.36,3.47 -3.47,1.73 -6.55,3.45 -9.98,5.2zm-41.57 -861.04c10.59,-9.6 21.15,-19.8 31.74,-29.63 38.85,45.4 15.19,66.4 -31.74,29.63zm46.35 -192.35c-6.71,2.7 -4.04,11.15 -14.62,4.05 3.27,-8.09 7.91,-9.44 14.62,-4.05zm-9.22 -211.61c9.8,-14.8 20.39,-29.05 30.96,-42.9 -1.92,29.83 4.05,168.69 -28.44,178.9 -20.6,6.35 -14.06,-118.11 -2.52,-136zm38.48 -385.69c6.54,-12.12 26.93,0.76 30.98,6.73 7.28,10.57 -17.91,110.41 -18.68,110.41 -38.48,4.82 -22.89,-98.49 -12.3,-117.14zm364.92 -1141.1c-0.57,0.95 -0.57,1.92 -1.35,2.66 0.77,-0.74 0.77,-1.71 1.35,-2.66zm1555.64 -1932.72c48.87,-34.61 89.25,-77.12 146.98,-97.34 -40.99,27.71 -107.36,87.54 -146.98,97.34zm5763.45 206.98c35.78,-13.25 61.74,33.66 36.55,56.75 -17.32,-14.8 -34.43,-30.19 -51.73,-45.02 5.36,-3.81 9.8,-7.86 15.18,-11.72zm145.26 107.34c50.76,40.2 87.51,97.54 127.13,148.14 -46.35,-21.74 -161.21,-102.54 -162.94,-152.38 11.94,1.35 23.86,2.89 35.8,4.24zm15.17 -90.6c14.04,0.95 27.71,1.55 42.32,2.3 -4.62,24.43 1.35,47.72 -27.9,44.25 -23.84,-2.89 -14.42,-28.86 -14.42,-46.55zm136.4 142.74c65.02,24.24 100.2,74.83 137.35,131.76 35.78,55.23 88.1,116.96 101.17,181.6 -52.11,-14.42 -101.17,-78.5 -132.92,-114.26 -51.15,-58.47 -108.29,-122.16 -105.6,-199.09zm131.96 -70.81l-51.17 -42.5c25.21,4.24 59.26,-0.57 51.17,42.5zm214.89 536.13c18.45,28.48 37.49,56.56 56.15,84.85 -11.92,-15.21 -68.11,-72.33 -56.15,-84.85zm78.09 165.06c-11.35,-14.8 -23.29,-29.25 -35.2,-43.85 39.63,-25.59 68.29,13.25 35.2,43.85zm424.72 405.7c4.62,-10.57 6.56,-21.74 5.97,-33.66 87.52,50 13.27,83.48 22.71,152.34 75.98,-46.55 82.51,3.87 109.07,72.73 26.56,70.19 66.36,146.57 56.57,222.18 -20.76,-43.28 -37.92,-88.1 -58.29,-131.38 -11.54,-22.89 -53.85,-93.5 -65.79,-28.48 -4.05,21.16 104.66,252.01 19.22,199.29 -27.1,-16.54 -38.26,-91.19 -47.13,-118.31 -18.47,-55.39 -37.11,-110.24 -55.57,-165.43 -26.56,-79.26 -79.65,-134.83 13.25,-169.28zm218.17 656.16c13.25,44.23 8.45,90.8 10.58,136.2 -22.51,-25.41 -31.74,-76.2 -44.45,-108.49 -10.75,-26.93 -53.65,-94.07 -25.78,-108.69 52.14,-28.08 52.14,55.77 59.65,80.98zm15.77 -166.6c2.7,2.7 5.4,5.4 8.09,7.89 -3.47,0.97 -6.56,1.92 -10.02,2.7 0.58,-3.47 1.15,-7.12 1.92,-10.59zm119.84 715.04c-27.89,-105.25 -59.64,-209.3 -94.64,-311.83 27.91,34.24 38.48,102.32 50.99,144.25 16.72,55.22 31.34,110.81 43.65,167.57zm-36.95 -350.5c10.61,4.42 11.94,12.69 4.64,24.42 -12.7,-6.72 -6.17,-11.9 -4.64,-24.42zm113.88 156.39c16.76,22.69 7.89,35.78 1.35,62.71 -11.9,-6.35 -23.09,-12.32 -34.99,-18.66 11.13,-14.62 22.49,-29.41 33.64,-44.05zm-263.71 3226.17c-2.7,7.86 -7.14,9.21 -13.84,3.81 0,-2.48 0,-5.75 0,-8.45 4.59,1.35 9.2,3.29 13.84,4.64zm110.02 540.15c-3.28,6.13 -6.74,12.5 -9.8,18.84 -4.05,-12.71 -0.77,-19.04 9.8,-18.84zm202.76 -1803.06c-5.4,3.67 -0.58,9.06 -7.89,7.52 2.5,-25.78 -0.6,-1.15 7.89,-7.52zm87.52 -244.69c3.45,-15.18 7.9,-29.79 14.04,-44.05 5.18,39.27 13.07,56.96 -12.71,87.15 -1.92,-14.22 -2.68,-28.46 -1.33,-43.1zm10.59 -184.47c14.02,0.77 9.98,-2.48 9.98,19.63 -13.27,2.88 -16.72,-3.85 -9.98,-19.63zm-2328.78 -4165.84c-4.62,2.5 -2.69,12.87 -7.12,4.05 -4.82,-9.44 2.5,-1.55 7.12,-4.05z"/>
   <path class="fil1 str0" d="M9963.68 4868c0,2309.07 -1871.88,4180.96 -4180.96,4180.96 -2309.07,0 -4180.96,-1871.89 -4180.96,-4180.96 0,-2309.07 1871.88,-4180.96 4180.96,-4180.96 2309.07,0 4180.96,1871.89 4180.96,4180.96z"/>
   <path class="fil1 str0" d="M9721.49 4782.64c0,2309.07 -1871.88,4180.96 -4180.96,4180.96 -2309.07,0 -4180.95,-1871.89 -4180.95,-4180.96 0,-2309.09 1871.87,-4180.96 4180.95,-4180.96 2309.08,0 4180.96,1871.87 4180.96,4180.96z"/>
   <path class="fil1 str0" d="M9570.7 4920.39c0,2309.07 -1871.89,4180.96 -4180.96,4180.96 -2309.07,0 -4180.96,-1871.89 -4180.96,-4180.96 0,-2309.07 1871.89,-4180.96 4180.96,-4180.96 2309.07,0 4180.96,1871.89 4180.96,4180.96z"/>
   <path class="fil2" d="M4871.39 8910.48c-43.45,-5.25 -88.44,-14.39 -130.98,-26.46 -42.93,-12.08 -85.18,-26.6 -126.17,-44.14 -82.08,-34.97 -159.26,-80.18 -231.22,-133.08 -71.13,-52.96 -138.86,-111.39 -200.85,-175.12 -62.26,-63.54 -119.87,-131.42 -174.34,-201.51 -6.58,-8.46 -5.04,-20.66 3.41,-27.25 3.26,-2.52 7.05,-3.85 10.87,-4.05l0.54 -0.03c96.17,-5.31 194.92,-10.91 293.93,8.39 24.63,4.79 49.26,11.04 73.14,19.93 24.57,8.6 46,19.09 70.66,32.93 20.15,12.96 40.35,25.58 60.88,43.46 20.64,16.58 37.77,34.39 54.88,53 67.98,74.67 113,162.43 163.55,243.14 24.4,40.97 48.89,81.72 77.82,118.62 14.63,18.18 28.43,37.44 45.06,53.78 15.65,17.54 33.62,32.33 51.14,48.21l0.89 0.79c4.64,4.21 4.97,11.37 0.78,15.99 -3.79,4.18 -9.98,4.86 -14.56,1.87 -20.68,-13.47 -41.72,-27.13 -60.04,-43.93 -19.37,-15.72 -36.54,-33.75 -53.23,-52.01 -33.12,-36.99 -61.13,-77.4 -88.72,-117.48 -52.74,-81.6 -101.19,-164.25 -162.09,-233.71 -15.17,-16.97 -31.59,-34.19 -48.36,-47.89 -15.5,-14.36 -35.92,-27.73 -56.21,-41.02 -17.32,-9.67 -39.03,-21.12 -60,-28.41 -21.22,-8.05 -43.14,-14.85 -65.68,-19.84 -90.25,-20.8 -186.31,-18.99 -282.17,-16.68l14.81 -31.34c51.51,70.9 106.08,139.52 165.25,203.96 59.39,64.19 122.44,125.12 193.05,177.25 69.71,52.11 145.4,97.29 225.39,132.06 40.03,17.31 81.08,32.41 123.17,43.75 42.48,11.4 84.26,19.48 128.43,24.34 6.23,0.68 10.73,6.29 10.05,12.51 -0.68,6.23 -6.28,10.73 -12.51,10.03 0,0 -0.06,0 -0.07,0l-0.51 -0.07z"/>
   <path class="fil3" d="M4397.39 8876.17c-77.78,-21.25 -155.37,-38.86 -234.7,-51.6 -79.03,-13.01 -158.66,-22.31 -238.53,-27.87 -39.96,-2.61 -79.95,-4.56 -119.96,-5.49 -40.05,-0.26 -80.05,0.25 -120.03,1.53 -79.95,2.9 -159.69,9.54 -238.89,19.94 -9.9,1.29 -19,-5.69 -20.3,-15.59 -1.26,-9.49 5.1,-18.24 14.34,-20.11l0.75 -0.15c31.13,-6.21 63.89,4.17 87.48,20.55 24.1,16.25 43.14,36.08 61,55.47 18,19.27 34.21,39.31 52.42,55.01 19.01,18.2 36.99,29.28 58.48,42.39 85.8,46.22 188.55,56.57 288.08,48.2 99.92,-8.58 198.85,-36.69 300.06,-61.2 50.73,-12.03 102.4,-22.2 154.82,-29.11 52.46,-6.35 106.01,-8.21 158.66,-2.16 6.23,0.71 10.72,6.35 10.01,12.58 -0.67,5.7 -5.52,9.92 -11.08,10.07 -102.15,2.93 -201.06,27.85 -300.23,56.1 -49.87,13.38 -99.71,27.69 -151.04,40.21 -25.56,6.4 -50.85,11.9 -77.54,16.32 -26.35,4.14 -52.85,7.57 -79.56,9.39 -105.85,7.82 -218.98,-3.46 -315.31,-60.31 -22.52,-14.17 -47.79,-32.33 -65.59,-50.8 -20.41,-19.06 -36.22,-40.16 -53.02,-59.26 -16.54,-19.27 -33.39,-37.49 -52,-50.89 -18.66,-13.45 -38.72,-19.97 -59.35,-16.87l-5.21 -35.85c80.62,-7.94 161.56,-12.04 242.45,-12.36 80.89,-0.04 161.69,3.09 242.27,9 80.55,6.24 160.81,16.25 240.4,30 79.3,14 159.07,30.57 236.71,50.86l0.27 0.08c6.06,1.57 9.7,7.77 8.11,13.83 -1.59,6.06 -7.79,9.69 -13.85,8.11l-0.11 -0.04z"/>
   <path class="fil4" d="M3645.29 8511.87c-82.39,-48.11 -158.86,-107.01 -227.5,-173.46 -68.58,-66.58 -128.36,-142.68 -177.63,-224.31 -49.41,-82.11 -91.8,-167.15 -135.8,-250.72 -44.12,-83.34 -90.97,-165.06 -149.8,-236.72 -6.8,-8.28 -5.6,-20.51 2.69,-27.31 7.75,-6.37 18.94,-5.73 25.92,1.14l0.52 0.53c34.27,33.96 80.77,54.66 129.25,73.85 24.29,9.74 49.24,19.3 74.1,30.83 12.5,5.99 24.63,11.87 37.14,19.38 11.04,6.24 23.15,14.35 34.95,22.64 91.22,66.49 149.56,163.89 194.47,260.87 45.22,97.62 74.57,199.1 119.25,292.02 21.18,46.89 45.84,91.98 75.83,133.53 7.36,9.92 15.52,21.6 22.56,29.87l26.11 29.73 26.63 30.25c4.11,6.02 13.73,16.55 5.64,33.27l-1.66 2.33c-3.08,3.41 -1.39,1.39 -2.33,2.37 0.07,0.63 -8.45,5.43 -11.98,3.91 -9.2,-1.87 -10.7,-6.3 -12.67,-8.85 -1.63,-3.09 -2.76,-5.39 -3.12,-10.46 -0.08,-0.96 0.08,-3.59 0.91,-5.74 1.35,-3.61 4.46,-7.05 9.71,-8.11 7.23,-0.45 8.62,1.71 10.49,2.56 5.27,3.4 6.77,10.42 3.37,15.69 -3.4,5.27 -10.42,6.77 -15.68,3.37 0.43,0.07 0.34,1.34 5.91,1.03 4.36,-0.89 6.94,-3.75 7.94,-6.55 0.68,-1.37 0.67,-3.32 0.67,-3.32 -0.1,-1.78 0.06,-0.95 0.13,-1.24 -0.25,0.15 0.66,-1.42 -5.18,-2.91 -1.59,-0.22 -2.84,-0.01 -4.77,0.61 -1.85,0.61 -3.71,2.72 -2.73,1.7 -0.36,0.38 1.99,-2.13 -0.61,0.6l-0.28 0.28c-1.32,4.21 -0.78,1.09 -4.72,-2.29l-28.44 -26.46 -28.9 -27.02c-11.12,-10.81 -18.99,-20.15 -27.88,-30.95 -34.38,-41.98 -63.4,-88.2 -88.54,-135.92 -47.82,-96.74 -82.41,-196.99 -123.8,-291.6 -41.56,-93.8 -96.77,-182.56 -175.21,-243.94 -9.56,-7.11 -19.06,-14.1 -30.75,-21.21 -9.89,-6.39 -21.31,-12.4 -32.41,-18.13 -22.63,-11.34 -46.61,-21.4 -70.94,-31.99 -48.28,-20.91 -100.25,-44.96 -140.34,-86.97l29.13 -25.67c119.3,154.37 179.3,338.24 275.44,499.2 48.03,80.87 105.76,155.38 172.64,221.31 66.55,66.24 142,123.04 223.85,169.42 5.45,3.09 7.36,10.02 4.28,15.47 -3.09,5.45 -10,7.36 -15.47,4.28l-0.07 -0.04 -0.32 -0.18z"/>
   <path class="fil5" d="M3061.1 8255.44c-32.46,-21.62 -65.17,-42.26 -98.19,-61.96 -33.38,-19.54 -67.62,-37.51 -102.08,-55.02 -69.19,-34.51 -140.41,-64.93 -213.13,-91.06 -36.44,-12.89 -73.11,-25.05 -110.33,-35.42 -37.27,-10.21 -74.73,-19.51 -112.4,-27.87 -75.41,-16.36 -151.71,-28.24 -228.34,-35.49l14.53 -33.76c72.39,59.61 118.8,138.93 181.58,194.37 3.83,3.59 7.86,6.84 11.87,10.12l5.11 4.24 6.77 4.81c8.92,5.96 18.31,13.85 26.87,18.21 16.62,10.35 35.21,19.93 54.45,27.96 38.49,16.02 79.75,26.13 121.96,32.35 84.63,11.64 172.31,12.43 260.87,11.3 43.89,1.48 89.44,-1.48 137.35,10.65 22.1,6.35 42.47,12.94 64.19,19.98 21.46,7.3 42.65,14.03 64.08,26.92 5.37,3.23 7.09,10.2 3.88,15.56 -2.88,4.79 -8.77,6.67 -13.8,4.72l-0.98 -0.38c-18.24,-7.06 -40.29,-11.58 -61.42,-16.13l-64.71 -12.64c-39.11,-7.27 -83.21,-1.88 -127.62,-0.04 -88.41,2.22 -178.94,7.43 -269.87,-7.82 -45.31,-7.26 -90.7,-18.82 -133.86,-37.4 -21.5,-9.32 -42.37,-20.18 -63.12,-33.66 -10.83,-6.47 -18.17,-13.39 -27.42,-20.06l-6.6 -5.05 -7.54 -6.55c-4.43,-3.89 -8.88,-7.78 -13,-11.91 -67.62,-65.28 -110.13,-144.58 -173.82,-200.18l-0.5 -0.45c-7.94,-6.94 -8.77,-19.01 -1.83,-26.95 4.34,-4.97 10.79,-7.13 16.87,-6.38 77.86,10.19 155.03,25.05 230.95,44.39 37.93,9.85 75.55,20.64 112.91,32.33 37.16,12.27 74.27,24.55 111.03,37.94 73.37,27.09 145.13,58.47 214.77,93.97 34.81,17.82 68.9,36.9 102.95,56.1 34.01,19.69 67.29,40.1 99.82,61.18 5.34,3.3 6.98,10.3 3.68,15.62 -3.3,5.32 -10.3,6.97 -15.62,3.67 -0.03,-0.01 -0.29,-0.2 -0.32,-0.21l0 0z"/>
   <path class="fil6" d="M2627.29 7714.49c-57.62,-53.34 -107.69,-115.2 -148.92,-182.18 -41.42,-67.24 -71.02,-140.98 -93.62,-215.78 -22.62,-74.9 -41.63,-150.37 -65.06,-223.79 -23.1,-73.4 -52.08,-144.61 -93.44,-207.45 -5.77,-8.74 -3.34,-20.5 5.41,-26.25 4.21,-2.76 9.12,-3.64 13.7,-2.83l0.6 0.1c44.42,7.93 89.75,16.09 134.56,30.71 22.33,7.37 44.5,16.43 65.77,27.92 21.69,11.65 40.99,25.19 59.3,41.84 74.44,66.85 108.04,162.36 122.2,254.36 14.35,93.3 3.97,185.74 -0.55,274.77 -3.26,44.57 -6.77,89.25 -5.24,132.45 1.32,42.8 8.98,85.36 34.78,118.1 3.99,4.86 3.26,12.02 -1.6,16.01 -4.36,3.57 -10.74,3.2 -14.85,-0.38 -37.2,-33.79 -51.51,-84.63 -57.29,-130.56 -4.96,-46.73 -4.82,-92.38 -4.45,-137.79 3.41,-90.71 7.73,-179.38 -2.95,-265.16 -5.7,-42.68 -16.57,-84.48 -33.11,-123.41 -16.93,-38.46 -39.73,-74.88 -68.92,-103.03 -59.61,-59.29 -147.7,-79.99 -234.96,-98.46l19.7 -28.97c41.85,68.78 69.07,144.05 89.93,219.44 21.35,75.41 36.56,151.67 59.15,225.48 21.7,73.99 49.86,145.87 89.5,211.46 39.13,66.02 88.7,125.42 145.87,176.81 4.65,4.18 5.05,11.35 0.86,16.01 -4.19,4.65 -11.37,5.04 -16.02,0.86 0,0 -0.05,-0.06 -0.08,-0.08l-0.25 -0.22z"/>
   <path class="fil7" d="M2233.23 7493.24c-18.63,-31.43 -38.88,-59.15 -61.8,-86.74 -22.71,-27.38 -48.51,-52.09 -74.81,-76.08 -53.25,-47.39 -111.93,-88.69 -174.11,-123.44 -31.27,-17.03 -63.22,-32.84 -96.38,-45.52 -33.06,-12.88 -67.27,-22.6 -101.91,-32.26 -68.9,-19.35 -141.97,-38.26 -205.4,-82.52l25.41 -29.19c58.23,58.97 86.5,134.26 129.29,192.02 21.53,28.9 46.44,53.39 75.66,73.4 29.22,20.2 61.87,36 96.07,48.24 68.39,24.48 142.84,35.08 219.08,51.85 37.82,9.71 75.98,21.47 112.33,39.01 35.81,18.43 69.42,43.85 93.12,76.54 3.69,5.1 2.57,12.22 -2.54,15.91 -4.5,3.26 -10.71,2.63 -14.62,-1.06 -53.39,-50.5 -125.01,-70.62 -198.36,-82.95 -72.93,-14.98 -151.96,-20.34 -227.23,-49.73 -37.48,-14 -73.96,-32.17 -107.29,-55.9 -33.64,-23.48 -63.45,-53.91 -85.71,-87.6 -44.67,-67.26 -69.18,-140.23 -117.74,-192.73l-0.62 -0.66c-7.26,-7.84 -6.77,-20.11 1.07,-27.38 7.04,-6.49 17.6,-6.8 24.96,-1.16 54.08,41.45 122.7,63.15 191.13,85.22 34.4,11.12 69.23,22.67 102.92,37.23 33.51,14.83 66.49,30.63 98.3,48.59 63.42,36.23 122.95,78.95 177.04,127.97 26.88,24.68 52.52,50.73 76.42,78.43 23.63,27.48 46.33,57.95 64.88,88.37l0.27 0.43c3.26,5.35 1.56,12.33 -3.79,15.59 -5.35,3.26 -12.33,1.57 -15.59,-3.78 -0.01,-0.03 -0.05,-0.11 -0.07,-0.13l0 0z"/>
   <path class="fil8" d="M6579.38 5075.31c-35.66,71.24 -75.22,140.61 -119.39,206.94 -9.93,18.75 -29.56,20.29 -48.22,14.08 -19.49,-6.5 -34.3,-21.53 -24.3,-42.55 33.22,-88.59 66.2,-177.28 99.23,-265.94 37.99,-101.98 76.64,-207.02 106.63,-311.69 0.63,-10.45 5.47,-24.81 8.63,-34.11 34.11,-100.21 107.53,-333.89 -60.28,-355.78 -152.54,-19.9 -320.46,154.93 -409.47,257.92 -106.09,122.73 -200.2,255.04 -280.97,395.73 -77.04,134.22 -142.93,274.5 -197.84,419.17l3.56 15.32 -10.61 3.43c-1.49,4 -2.96,8 -4.43,12.01 -4.87,41.71 -18.78,83.96 -52.69,111.08l-0.47 0.37 -0.5 0.34c-23.29,15.52 -46.44,9.14 -65.27,-9.69 -17.27,-17.27 -27,-39.57 -32.15,-63l-8.69 2.88c-68.19,18.94 -158.67,38.23 -229.26,24.11l-0.55 -0.11 -0.55 -0.16c-77.93,-22.28 -135.5,-69.92 -171.75,-142.43 -37.2,-74.4 -50.38,-155.12 -45.19,-238.25 7.85,-86.23 31.11,-180.8 52.1,-264.73 20.51,-82.03 43.35,-182.35 43.35,-267.2 0,-70.64 -8.68,-153.86 -45.61,-215.41 -70.49,-111.6 -175.76,-87.22 -275.82,-27.19 -143.98,82.28 -286.92,255.66 -385.57,386.02 -92.29,127.77 -181.42,258.36 -269.82,388.85 -35.66,71.24 -75.22,140.61 -119.4,206.93 -9.92,18.75 -29.55,20.29 -48.21,14.07 -19.49,-6.5 -34.3,-21.51 -24.3,-42.53 33.23,-88.59 66.2,-177.29 99.24,-265.94 38,-101.98 76.63,-207.02 106.63,-311.69 0.63,-10.46 5.46,-24.81 8.63,-34.12 34.1,-100.19 107.53,-333.91 -60.26,-355.78 -152.43,-19.88 -320.44,155.11 -409.47,257.94 -215.05,248.36 -377.23,537.79 -490.29,845.64 -4.88,41.71 -18.79,83.96 -52.69,111.08l-0.46 0.37 -0.5 0.33c-23.29,15.54 -46.46,9.14 -65.29,-9.69 -36.91,-36.92 -39.92,-97.38 -35.84,-146.25l0.14 -1.65 0.52 -1.58c5.09,-15.28 7.25,-31.26 7.25,-47.34 0,-38.73 7.95,-76.84 7.95,-115.39l0 -1.71 0.42 -1.66c3.44,-13.8 4.92,-32.37 6.51,-46.57 3.81,-34.03 6.98,-68.17 10.06,-102.27 -7.98,-92.99 2.24,-188.73 20.53,-280.19 3.26,-14.95 6.47,-29.9 9.61,-44.87 6.94,-64.07 14,-129.36 24.58,-192.93 2.81,-33.54 6.57,-67.28 12.44,-100.44 -5.38,-83.14 -28.44,-181.12 -117.03,-210.65l-4.52 -1.51 -2.65 -3.97c-10.38,-15.57 -51.1,-11.73 -66.31,-9.84 -26.95,3.37 -55.94,6.46 -82.55,11.78 -26.5,5.3 -56.28,15.42 -82.14,23.5 -13.86,4.33 -56.47,18.9 -73.25,20.4 -99.69,31.12 -200.59,59.21 -301.21,87.16 -204.6,56.83 -410.62,115.67 -612.1,182.83l-0.81 0.24c-110.38,29.44 -222.09,70.68 -328.93,110.99 -91.51,34.53 -183,69.11 -274.94,103.59 -360.33,123.99 -821.95,236.85 -1201.53,143.6l-3.76 -0.93 -2.75 -2.74c-14.28,-14.28 -3.51,-32.05 7.96,-43.52l5.08 -5.08 7.08 1.21c214.53,36.63 430.07,34.27 643.55,-7.9 248.55,-49.09 496.16,-127.99 734.06,-214.29 162.69,-59.01 327.25,-113.81 491.78,-167.44 225.59,-73.52 452.04,-144.57 678.68,-214.76 98.45,-30.49 196.39,-62.82 294.84,-95.61 68.19,-18.94 158.67,-38.23 229.26,-24.11l0.55 0.11 0.55 0.15c77.93,22.28 135.5,69.92 171.75,142.43 37.2,74.4 50.38,155.12 45.18,238.25 -6.46,70.93 -23.66,146.43 -40.14,215.72l-12.99 181.93c-6.51,69.47 -12.79,139.02 -17.89,208.61 -2.8,38.23 -5.93,78.04 -5.93,116.37l0 2.71c57.02,-132.23 122.36,-260.89 197.23,-384.19 102.71,-161.41 220.99,-316.59 360.29,-448.29 117.42,-111.01 284.38,-220.73 446.1,-129.33l0.44 0.25 0.42 0.28c139.19,92.79 83.84,330.92 45.42,461.13 -15.47,52.45 -31.96,104.59 -49.56,156.35 63.11,-93.42 129.38,-186.06 200.33,-272.25 104.54,-143.21 250.84,-310.87 419.15,-378.2 66.7,-30.77 136.45,-39.27 205.68,-12.18 69.13,27.05 116.28,79.56 146.84,146.43 64.86,141.88 54.71,312.89 24.81,462.35 -15.02,68.66 -29.44,138.38 -39.61,207.94 -4.89,33.34 -11.63,80.26 -7.9,113.83l0.05 0.49 0.02 0.49c3.47,86.74 24.1,194.87 117.84,226.12l4.52 1.51 2.65 3.96c10.38,15.57 51.1,11.74 66.31,9.84 26.94,-3.37 55.95,-6.46 82.55,-11.78 7.68,-1.54 15.53,-3.64 23.23,-5.82 0.05,-0.53 0.08,-1.07 0.13,-1.61l0.14 -1.65 0.53 -1.58c5.09,-15.27 7.25,-31.26 7.25,-47.33 0,-20.52 1.54,-41.06 4.08,-61.4 2.22,-17.81 3.88,-36.02 3.88,-53.98l0 -1.71 0.41 -1.66c6.47,-25.86 8.52,-68.45 11.06,-95.46 7.19,-76.18 13.68,-152.45 20.41,-228.67 10,-113.38 21.13,-230.34 39.82,-342.69 4.18,-49.99 10.4,-104.29 24.13,-152.64 7.44,-40.67 21.4,-95.96 51.47,-126.04 11.36,-11.37 26.76,-9.17 39.9,-2.6l3.62 1.81 2.08 3.47c22.69,37.81 25.86,99.44 25.86,142.44 0,53.18 -3.92,107.21 -7.99,160.22 -8.56,111.32 -15.92,222.8 -23.9,334.47 -6.51,69.47 -12.78,139.03 -17.88,208.61 -2.8,38.23 -5.93,78.03 -5.93,116.36l0 2.7c57.01,-132.22 122.36,-260.88 197.22,-384.18 102.71,-161.41 220.99,-316.59 360.29,-448.29 117.43,-111.02 284.38,-220.74 446.11,-129.33l0.44 0.25 0.42 0.28c139.19,92.79 83.84,330.93 45.41,461.13 -15.47,52.45 -31.96,104.59 -49.56,156.36 63.11,-93.43 129.39,-186.08 200.34,-272.26 104.54,-143.21 250.83,-310.87 419.14,-378.2 66.7,-30.78 136.46,-39.27 205.69,-12.18 69.14,27.05 116.27,79.56 146.84,146.43 64.86,141.87 54.7,312.9 24.81,462.35 -15.02,68.66 -29.44,138.38 -39.61,207.94 -4.88,33.34 -11.63,80.27 -7.9,113.83l0.06 0.49 0.02 0.49c3.47,86.74 24.09,194.87 117.84,226.12l4.52 1.51 2.65 3.97c10.38,15.58 51.09,11.74 66.3,9.84 26.94,-3.37 55.95,-6.45 82.55,-11.77 26.5,-5.3 56.29,-15.43 82.14,-23.51 13.85,-4.33 56.47,-18.9 73.24,-20.41 99.69,-31.12 200.59,-59.2 301.21,-87.15 204.59,-56.84 410.62,-115.67 612.1,-182.83l0.81 -0.24c110.39,-29.44 222.09,-70.68 328.94,-110.99 91.5,-34.53 183,-69.12 274.93,-103.59 360.35,-123.99 821.94,-236.83 1201.53,-143.59l3.77 0.93 2.74 2.73c14.3,14.28 3.52,32.06 -7.95,43.53l-5.08 5.08 -7.08 -1.21c-214.53,-36.63 -430.07,-34.27 -643.55,7.89 -248.54,49.1 -496.17,127.99 -734.07,214.29 -162.68,59.01 -327.25,113.81 -491.78,167.43 -225.59,73.53 -452.04,144.57 -678.68,214.77 -98.45,30.49 -196.4,62.82 -294.84,95.62 -68.2,18.95 -158.66,38.23 -229.26,24.11l-0.55 -0.11 -0.54 -0.16c-77.94,-22.27 -135.5,-69.93 -171.75,-142.43 -37.2,-74.4 -50.39,-155.12 -45.19,-238.25 7.85,-86.23 31.11,-180.79 52.09,-264.73 20.51,-82.03 43.36,-182.35 43.36,-267.19 0,-70.64 -8.68,-153.86 -45.61,-215.41 -70.49,-111.6 -175.76,-87.22 -275.82,-27.18 -143.98,82.27 -286.92,255.66 -385.57,386.01 -92.29,127.78 -181.42,258.35 -269.82,388.84zm-3340.99 127.23c-0.54,1.15 -1.07,2.38 -1.57,3.68 0.53,-1.23 1.05,-2.45 1.57,-3.68zm2425.84 0.08c-0.55,1.17 -1.08,2.39 -1.57,3.67 0.53,-1.23 1.05,-2.45 1.57,-3.67z"/>
   <path class="fil9" d="M6461.55 834.35c43.44,5.25 88.44,14.39 130.98,26.46 42.93,12.08 85.18,26.6 126.17,44.14 82.08,34.97 159.27,80.18 231.22,133.08 71.13,52.96 138.86,111.39 200.85,175.12 62.26,63.54 119.87,131.42 174.34,201.51 6.57,8.46 5.04,20.66 -3.41,27.25 -3.26,2.52 -7.05,3.85 -10.87,4.05l-0.54 0.03c-96.17,5.31 -194.92,10.91 -293.94,-8.39 -24.63,-4.79 -49.25,-11.04 -73.14,-19.93 -24.57,-8.6 -46,-19.09 -70.66,-32.93 -20.15,-12.96 -40.35,-25.58 -60.88,-43.46 -20.64,-16.58 -37.78,-34.39 -54.89,-53 -67.98,-74.67 -113,-162.43 -163.55,-243.14 -24.4,-40.97 -48.89,-81.72 -77.82,-118.62 -14.63,-18.18 -28.42,-37.44 -45.06,-53.78 -15.65,-17.54 -33.62,-32.33 -51.14,-48.21l-0.89 -0.79c-4.64,-4.21 -4.98,-11.37 -0.78,-15.99 3.79,-4.18 9.98,-4.86 14.56,-1.87 20.68,13.47 41.72,27.13 60.04,43.93 19.37,15.72 36.53,33.75 53.23,52.01 33.12,36.99 61.13,77.4 88.72,117.48 52.74,81.6 101.19,164.25 162.09,233.71 15.18,16.97 31.59,34.19 48.37,47.89 15.49,14.36 35.92,27.73 56.21,41.02 17.32,9.67 39.03,21.12 60,28.41 21.22,8.05 43.14,14.85 65.68,19.84 90.25,20.8 186.31,18.99 282.17,16.68l-14.81 31.34c-51.51,-70.9 -106.08,-139.52 -165.25,-203.96 -59.38,-64.19 -122.44,-125.13 -193.05,-177.25 -69.71,-52.11 -145.4,-97.29 -225.39,-132.06 -40.03,-17.31 -81.08,-32.41 -123.18,-43.75 -42.48,-11.4 -84.26,-19.48 -128.43,-24.34 -6.23,-0.68 -10.73,-6.29 -10.05,-12.51 0.68,-6.23 6.29,-10.73 12.51,-10.03 0,0 0.06,0 0.07,0l0.51 0.07z"/>
   <path class="fil10" d="M6935.55 868.67c77.78,21.25 155.38,38.86 234.7,51.6 79.03,13.01 158.66,22.31 238.53,27.87 39.96,2.61 79.95,4.56 119.96,5.49 40.05,0.26 80.05,-0.25 120.02,-1.53 79.95,-2.9 159.69,-9.54 238.89,-19.94 9.91,-1.29 19.01,5.69 20.3,15.59 1.25,9.49 -5.1,18.24 -14.34,20.11l-0.75 0.15c-31.13,6.22 -63.88,-4.17 -87.47,-20.55 -24.11,-16.25 -43.14,-36.08 -61,-55.47 -18,-19.27 -34.21,-39.31 -52.42,-55.01 -19.01,-18.2 -36.99,-29.28 -58.48,-42.39 -85.8,-46.22 -188.55,-56.57 -288.08,-48.2 -99.92,8.58 -198.85,36.69 -300.06,61.2 -50.73,12.03 -102.4,22.2 -154.82,29.11 -52.46,6.35 -106.01,8.21 -158.66,2.16 -6.23,-0.71 -10.72,-6.35 -10.01,-12.58 0.67,-5.7 5.52,-9.92 11.08,-10.07 102.15,-2.93 201.06,-27.85 300.23,-56.1 49.87,-13.38 99.71,-27.69 151.04,-40.21 25.55,-6.4 50.84,-11.9 77.54,-16.32 26.35,-4.14 52.85,-7.57 79.56,-9.39 105.86,-7.82 218.98,3.46 315.31,60.31 22.52,14.17 47.79,32.33 65.58,50.8 20.41,19.06 36.21,40.16 53.02,59.26 16.54,19.27 33.39,37.49 52,50.89 18.66,13.45 38.72,19.97 59.34,16.87l5.21 35.85c-80.62,7.94 -161.56,12.04 -242.45,12.36 -80.88,0.04 -161.69,-3.09 -242.27,-9 -80.55,-6.24 -160.81,-16.25 -240.4,-30 -79.29,-14 -159.07,-30.57 -236.7,-50.86l-0.26 -0.08c-6.06,-1.58 -9.7,-7.78 -8.11,-13.84 1.59,-6.06 7.79,-9.69 13.85,-8.11l0.11 0.04z"/>
   <path class="fil11" d="M7687.65 1232.96c82.39,48.11 158.86,107.01 227.49,173.46 68.58,66.58 128.36,142.68 177.63,224.31 49.41,82.11 91.8,167.15 135.8,250.72 44.12,83.34 90.98,165.06 149.8,236.72 6.8,8.28 5.6,20.51 -2.69,27.31 -7.75,6.37 -18.94,5.73 -25.92,-1.14l-0.51 -0.53c-34.28,-33.96 -80.78,-54.66 -129.25,-73.85 -24.29,-9.74 -49.24,-19.3 -74.1,-30.83 -12.5,-5.99 -24.64,-11.87 -37.15,-19.38 -11.04,-6.24 -23.14,-14.35 -34.95,-22.64 -91.23,-66.49 -149.57,-163.89 -194.47,-260.87 -45.22,-97.62 -74.57,-199.1 -119.25,-292.02 -21.18,-46.89 -45.84,-91.98 -75.83,-133.53 -7.36,-9.92 -15.52,-21.6 -22.56,-29.87l-26.11 -29.73 -26.63 -30.25c-4.11,-6.02 -13.73,-16.55 -5.65,-33.27l1.66 -2.33c3.08,-3.41 1.39,-1.39 2.32,-2.37 -0.07,-0.63 8.45,-5.43 11.99,-3.91 9.19,1.87 10.7,6.3 12.67,8.85 1.63,3.09 2.76,5.39 3.12,10.46 0.08,0.96 -0.08,3.59 -0.9,5.74 -1.35,3.61 -4.46,7.05 -9.71,8.11 -7.23,0.45 -8.63,-1.71 -10.49,-2.56 -5.27,-3.4 -6.77,-10.42 -3.37,-15.69 3.4,-5.27 10.42,-6.77 15.67,-3.37 -0.43,-0.07 -0.33,-1.34 -5.91,-1.03 -4.36,0.89 -6.94,3.75 -7.94,6.55 -0.68,1.37 -0.67,3.32 -0.67,3.32 0.1,1.78 -0.06,0.95 -0.13,1.24 0.25,-0.15 -0.65,1.42 5.18,2.91 1.59,0.22 2.84,0.01 4.77,-0.61 1.85,-0.61 3.7,-2.72 2.73,-1.7 0.36,-0.38 -1.99,2.13 0.61,-0.6l0.28 -0.28c1.32,-4.21 0.78,-1.09 4.72,2.29l28.44 26.46 28.9 27.02c11.12,10.81 18.99,20.15 27.88,30.95 34.37,41.98 63.4,88.2 88.54,135.92 47.82,96.74 82.4,196.99 123.8,291.6 41.57,93.8 96.77,182.56 175.22,243.94 9.56,7.11 19.06,14.1 30.75,21.21 9.89,6.39 21.3,12.4 32.41,18.13 22.63,11.34 46.61,21.4 70.93,31.99 48.28,20.91 100.25,44.96 140.34,86.97l-29.13 25.67c-119.3,-154.37 -179.3,-338.24 -275.44,-499.2 -48.03,-80.87 -105.76,-155.38 -172.64,-221.31 -66.55,-66.24 -142,-123.04 -223.85,-169.42 -5.45,-3.09 -7.36,-10.02 -4.28,-15.47 3.09,-5.45 10.01,-7.36 15.47,-4.28l0.07 0.04 0.32 0.18z"/>
   <path class="fil12" d="M8271.84 1489.39c32.45,21.62 65.17,42.26 98.19,61.96 33.38,19.54 67.62,37.51 102.08,55.02 69.2,34.51 140.41,64.93 213.13,91.06 36.43,12.89 73.11,25.05 110.33,35.42 37.27,10.21 74.73,19.51 112.41,27.87 75.41,16.36 151.71,28.24 228.35,35.49l-14.53 33.76c-72.39,-59.61 -118.8,-138.93 -181.58,-194.37 -3.83,-3.59 -7.86,-6.84 -11.87,-10.12l-5.11 -4.24 -6.77 -4.81c-8.92,-5.96 -18.31,-13.85 -26.86,-18.21 -16.62,-10.35 -35.21,-19.93 -54.45,-27.96 -38.49,-16.02 -79.76,-26.13 -121.96,-32.35 -84.64,-11.64 -172.31,-12.43 -260.87,-11.3 -43.89,-1.48 -89.44,1.48 -137.35,-10.65 -22.1,-6.35 -42.47,-12.94 -64.19,-19.98 -21.46,-7.3 -42.65,-14.03 -64.08,-26.92 -5.37,-3.23 -7.09,-10.2 -3.87,-15.56 2.88,-4.79 8.76,-6.67 13.79,-4.72l0.97 0.38c18.24,7.06 40.3,11.58 61.42,16.13l64.71 12.64c39.11,7.27 83.21,1.88 127.62,0.04 88.41,-2.22 178.94,-7.43 269.87,7.82 45.31,7.26 90.69,18.82 133.86,37.4 21.5,9.32 42.37,20.18 63.12,33.66 10.83,6.47 18.17,13.39 27.42,20.06l6.6 5.05 7.54 6.55c4.43,3.89 8.87,7.78 13,11.91 67.62,65.28 110.14,144.58 173.82,200.18l0.5 0.45c7.94,6.94 8.77,19.01 1.82,26.95 -4.33,4.97 -10.78,7.13 -16.87,6.38 -77.86,-10.19 -155.03,-25.05 -230.95,-44.39 -37.93,-9.85 -75.55,-20.64 -112.91,-32.33 -37.16,-12.27 -74.26,-24.55 -111.02,-37.94 -73.37,-27.09 -145.13,-58.47 -214.77,-93.97 -34.81,-17.82 -68.9,-36.9 -102.96,-56.1 -34.01,-19.69 -67.29,-40.1 -99.82,-61.18 -5.34,-3.3 -6.98,-10.3 -3.68,-15.62 3.3,-5.32 10.3,-6.97 15.62,-3.67 0.03,0.01 0.29,0.2 0.32,0.21l0 0z"/>
   <path class="fil13" d="M8705.65 2030.34c57.61,53.34 107.69,115.2 148.92,182.18 41.42,67.24 71.02,140.98 93.62,215.78 22.61,74.9 41.63,150.37 65.06,223.79 23.1,73.4 52.08,144.61 93.44,207.45 5.77,8.74 3.35,20.5 -5.4,26.25 -4.21,2.76 -9.11,3.64 -13.7,2.83l-0.6 -0.1c-44.42,-7.93 -89.75,-16.09 -134.56,-30.71 -22.34,-7.37 -44.51,-16.43 -65.77,-27.92 -21.7,-11.65 -41,-25.19 -59.3,-41.84 -74.43,-66.85 -108.04,-162.35 -122.2,-254.36 -14.35,-93.3 -3.97,-185.74 0.54,-274.77 3.26,-44.57 6.77,-89.25 5.24,-132.45 -1.32,-42.8 -8.97,-85.36 -34.78,-118.1 -3.99,-4.86 -3.26,-12.02 1.6,-16.01 4.36,-3.57 10.74,-3.2 14.85,0.38 37.2,33.79 51.51,84.63 57.29,130.56 4.96,46.73 4.82,92.38 4.44,137.79 -3.41,90.71 -7.73,179.38 2.96,265.16 5.7,42.68 16.57,84.48 33.1,123.41 16.93,38.46 39.73,74.88 68.92,103.03 59.61,59.29 147.7,79.99 234.97,98.46l-19.7 28.97c-41.84,-68.78 -69.07,-144.05 -89.93,-219.44 -21.35,-75.41 -36.56,-151.67 -59.15,-225.48 -21.7,-73.99 -49.86,-145.87 -89.5,-211.46 -39.12,-66.02 -88.7,-125.42 -145.87,-176.81 -4.65,-4.18 -5.04,-11.35 -0.86,-16.01 4.19,-4.65 11.37,-5.04 16.02,-0.86 0,0 0.06,0.06 0.08,0.08l0.25 0.22z"/>
   <path class="fil14" d="M9099.71 2251.59c18.63,31.43 38.88,59.15 61.8,86.74 22.71,27.38 48.52,52.09 74.81,76.08 53.25,47.39 111.93,88.69 174.12,123.44 31.27,17.03 63.22,32.84 96.38,45.52 33.07,12.87 67.27,22.6 101.91,32.25 68.9,19.35 141.97,38.26 205.4,82.52l-25.41 29.19c-58.23,-58.97 -86.5,-134.26 -129.29,-192.02 -21.53,-28.9 -46.44,-53.39 -75.66,-73.4 -29.22,-20.2 -61.86,-36 -96.07,-48.24 -68.39,-24.48 -142.83,-35.08 -219.08,-51.85 -37.82,-9.71 -75.98,-21.47 -112.33,-39.01 -35.81,-18.43 -69.42,-43.85 -93.12,-76.54 -3.69,-5.1 -2.56,-12.22 2.54,-15.91 4.5,-3.26 10.71,-2.63 14.61,1.06 53.4,50.5 125.01,70.62 198.36,82.95 72.93,14.98 151.96,20.34 227.23,49.73 37.48,14 73.96,32.17 107.29,55.9 33.64,23.48 63.45,53.91 85.71,87.6 44.67,67.26 69.18,140.23 117.74,192.73l0.61 0.66c7.26,7.84 6.77,20.11 -1.07,27.38 -7.04,6.49 -17.6,6.8 -24.95,1.16 -54.08,-41.45 -122.7,-63.15 -191.13,-85.22 -34.4,-11.12 -69.22,-22.67 -102.91,-37.23 -33.51,-14.83 -66.49,-30.63 -98.3,-48.59 -63.42,-36.23 -122.95,-78.95 -177.04,-127.97 -26.88,-24.68 -52.52,-50.73 -76.43,-78.43 -23.63,-27.48 -46.33,-57.95 -64.88,-88.37l-0.26 -0.43c-3.26,-5.35 -1.56,-12.33 3.79,-15.59 5.35,-3.26 12.33,-1.57 15.59,3.78 0.01,0.03 0.06,0.11 0.07,0.13l0 0z"/>
   <path class="fil15" d="M6611.65 5052.58c-35.66,71.24 -75.22,140.61 -119.39,206.94 -9.93,18.75 -29.56,20.29 -48.22,14.08 -19.49,-6.5 -34.3,-21.53 -24.3,-42.55 33.22,-88.59 66.2,-177.28 99.23,-265.94 38,-101.98 76.63,-207.02 106.63,-311.69 0.64,-10.45 5.47,-24.81 8.64,-34.11 34.11,-100.21 107.53,-333.89 -60.28,-355.78 -152.55,-19.9 -320.46,154.93 -409.47,257.92 -106.09,122.73 -200.2,255.04 -280.97,395.73 -77.05,134.22 -142.93,274.5 -197.84,419.17l3.56 15.32 -10.61 3.43c-1.49,4 -2.96,8 -4.44,12.01 -4.87,41.71 -18.78,83.96 -52.68,111.08l-0.47 0.37 -0.5 0.34c-23.3,15.52 -46.44,9.14 -65.27,-9.69 -17.27,-17.27 -27,-39.57 -32.15,-63l-8.69 2.88c-68.2,18.94 -158.67,38.23 -229.27,24.11l-0.55 -0.11 -0.55 -0.16c-77.93,-22.28 -135.5,-69.92 -171.75,-142.43 -37.2,-74.4 -50.38,-155.12 -45.19,-238.25 7.85,-86.23 31.11,-180.8 52.1,-264.73 20.51,-82.03 43.36,-182.35 43.36,-267.2 0,-70.64 -8.68,-153.86 -45.61,-215.41 -70.49,-111.6 -175.75,-87.22 -275.82,-27.19 -143.98,82.28 -286.92,255.66 -385.56,386.02 -92.29,127.77 -181.42,258.36 -269.82,388.85 -35.66,71.24 -75.22,140.61 -119.4,206.93 -9.92,18.75 -29.55,20.29 -48.21,14.07 -19.49,-6.5 -34.3,-21.51 -24.29,-42.53 33.22,-88.59 66.2,-177.29 99.23,-265.94 38,-101.98 76.63,-207.02 106.62,-311.69 0.63,-10.46 5.46,-24.81 8.63,-34.12 34.1,-100.19 107.54,-333.91 -60.26,-355.78 -152.43,-19.88 -320.44,155.11 -409.48,257.94 -215.05,248.36 -377.23,537.79 -490.29,845.64 -4.87,41.71 -18.79,83.96 -52.69,111.08l-0.46 0.37 -0.5 0.33c-23.29,15.54 -46.46,9.14 -65.28,-9.69 -36.91,-36.92 -39.92,-97.38 -35.84,-146.25l0.14 -1.65 0.52 -1.58c5.09,-15.28 7.25,-31.26 7.25,-47.34 0,-38.73 7.96,-76.84 7.96,-115.39l0 -1.71 0.42 -1.66c3.44,-13.8 4.92,-32.37 6.51,-46.57 3.81,-34.03 6.97,-68.17 10.06,-102.27 -7.98,-92.99 2.24,-188.73 20.53,-280.19 3.26,-14.95 6.47,-29.9 9.61,-44.87 6.94,-64.07 14,-129.36 24.57,-192.93 2.81,-33.54 6.57,-67.28 12.44,-100.44 -5.38,-83.14 -28.44,-181.12 -117.03,-210.65l-4.52 -1.51 -2.65 -3.97c-10.38,-15.57 -51.09,-11.73 -66.31,-9.84 -26.95,3.37 -55.94,6.46 -82.55,11.78 -26.51,5.3 -56.28,15.42 -82.14,23.5 -13.86,4.33 -56.47,18.9 -73.25,20.4 -99.69,31.12 -200.59,59.21 -301.21,87.16 -204.6,56.83 -410.62,115.67 -612.1,182.83l-0.81 0.24c-110.38,29.44 -222.09,70.68 -328.93,110.99 -91.5,34.53 -183,69.11 -274.93,103.59 -360.33,123.99 -821.95,236.85 -1201.54,143.6l-3.76 -0.93 -2.75 -2.74c-14.28,-14.28 -3.51,-32.05 7.95,-43.52l5.08 -5.08 7.08 1.21c214.54,36.63 430.07,34.27 643.56,-7.9 248.54,-49.09 496.16,-127.99 734.06,-214.29 162.69,-59.01 327.25,-113.81 491.78,-167.44 225.58,-73.52 452.04,-144.57 678.68,-214.76 98.45,-30.49 196.4,-62.82 294.83,-95.61 68.2,-18.94 158.67,-38.23 229.27,-24.11l0.55 0.11 0.55 0.15c77.93,22.28 135.5,69.92 171.75,142.43 37.2,74.4 50.38,155.12 45.18,238.25 -6.46,70.93 -23.66,146.43 -40.14,215.72l-12.99 181.93c-6.51,69.47 -12.79,139.02 -17.88,208.61 -2.8,38.23 -5.94,78.04 -5.94,116.37l0 2.71c57.01,-132.23 122.36,-260.89 197.23,-384.19 102.72,-161.41 220.99,-316.59 360.29,-448.29 117.42,-111.01 284.38,-220.73 446.11,-129.33l0.44 0.25 0.42 0.28c139.19,92.79 83.84,330.92 45.42,461.13 -15.47,52.45 -31.96,104.59 -49.56,156.35 63.11,-93.42 129.38,-186.06 200.33,-272.25 104.54,-143.21 250.84,-310.87 419.14,-378.2 66.7,-30.77 136.46,-39.27 205.69,-12.18 69.13,27.05 116.28,79.56 146.84,146.43 64.86,141.88 54.7,312.89 24.8,462.35 -15.01,68.66 -29.44,138.38 -39.61,207.94 -4.88,33.34 -11.63,80.26 -7.9,113.83l0.05 0.49 0.02 0.49c3.46,86.74 24.09,194.87 117.84,226.12l4.52 1.51 2.65 3.96c10.38,15.57 51.1,11.74 66.31,9.84 26.95,-3.37 55.95,-6.46 82.55,-11.78 7.68,-1.54 15.53,-3.64 23.23,-5.82 0.05,-0.53 0.08,-1.07 0.13,-1.61l0.14 -1.65 0.53 -1.58c5.09,-15.27 7.25,-31.26 7.25,-47.33 0,-20.52 1.55,-41.06 4.08,-61.4 2.22,-17.81 3.87,-36.02 3.87,-53.98l0 -1.71 0.42 -1.66c6.47,-25.86 8.52,-68.45 11.06,-95.46 7.18,-76.18 13.68,-152.45 20.41,-228.67 10,-113.38 21.12,-230.34 39.82,-342.69 4.18,-49.99 10.4,-104.29 24.13,-152.64 7.44,-40.67 21.4,-95.96 51.47,-126.04 11.37,-11.37 26.76,-9.17 39.91,-2.6l3.62 1.81 2.08 3.47c22.69,37.81 25.85,99.44 25.85,142.44 0,53.18 -3.92,107.21 -7.99,160.22 -8.56,111.32 -15.92,222.8 -23.9,334.47 -6.51,69.47 -12.78,139.03 -17.88,208.61 -2.8,38.23 -5.94,78.03 -5.94,116.36l0 2.7c57.02,-132.22 122.36,-260.88 197.22,-384.18 102.72,-161.41 221,-316.59 360.29,-448.29 117.43,-111.02 284.38,-220.74 446.11,-129.33l0.44 0.25 0.43 0.28c139.18,92.79 83.83,330.93 45.41,461.13 -15.47,52.45 -31.96,104.59 -49.56,156.36 63.11,-93.43 129.39,-186.08 200.34,-272.26 104.54,-143.21 250.83,-310.87 419.14,-378.2 66.69,-30.78 136.46,-39.27 205.69,-12.18 69.13,27.05 116.27,79.56 146.84,146.43 64.86,141.87 54.7,312.9 24.8,462.35 -15.01,68.66 -29.44,138.38 -39.61,207.94 -4.88,33.34 -11.63,80.27 -7.89,113.83l0.05 0.49 0.02 0.49c3.46,86.74 24.1,194.87 117.84,226.12l4.52 1.51 2.65 3.97c10.38,15.58 51.08,11.74 66.3,9.84 26.95,-3.37 55.95,-6.45 82.55,-11.77 26.51,-5.3 56.29,-15.43 82.15,-23.51 13.85,-4.33 56.47,-18.9 73.24,-20.41 99.69,-31.12 200.59,-59.2 301.21,-87.15 204.6,-56.84 410.62,-115.67 612.1,-182.83l0.81 -0.24c110.39,-29.44 222.09,-70.68 328.94,-110.99 91.51,-34.53 183,-69.12 274.93,-103.59 360.35,-123.99 821.94,-236.83 1201.54,-143.59l3.76 0.93 2.74 2.73c14.3,14.28 3.52,32.06 -7.95,43.53l-5.08 5.08 -7.08 -1.21c-214.54,-36.63 -430.07,-34.27 -643.55,7.89 -248.55,49.1 -496.17,127.99 -734.07,214.29 -162.68,59.01 -327.25,113.81 -491.78,167.43 -225.59,73.53 -452.04,144.57 -678.68,214.77 -98.45,30.49 -196.4,62.82 -294.84,95.62 -68.2,18.95 -158.66,38.23 -229.27,24.11l-0.54 -0.11 -0.54 -0.16c-77.94,-22.27 -135.5,-69.93 -171.75,-142.43 -37.19,-74.4 -50.38,-155.12 -45.18,-238.25 7.84,-86.23 31.1,-180.79 52.09,-264.73 20.51,-82.03 43.36,-182.35 43.36,-267.19 0,-70.64 -8.68,-153.86 -45.61,-215.41 -70.48,-111.6 -175.75,-87.22 -275.81,-27.18 -143.98,82.27 -286.93,255.66 -385.57,386.01 -92.28,127.78 -181.42,258.35 -269.82,388.84zm-3340.99 127.23c-0.54,1.15 -1.06,2.38 -1.57,3.68 0.52,-1.23 1.05,-2.45 1.57,-3.68zm2425.84 0.08c-0.55,1.17 -1.08,2.39 -1.57,3.67 0.52,-1.23 1.05,-2.45 1.57,-3.67z"/>
   <path class="fil16" d="M5744.2 5151.26c-0.56,1.17 -1.08,2.39 -1.57,3.67 0.52,-1.23 1.05,-2.45 1.57,-3.67z"/>
   <path class="fil16" d="M3318.36 5151.19c-0.54,1.15 -1.07,2.37 -1.58,3.68 0.53,-1.23 1.05,-2.45 1.58,-3.68z"/>
   <path class="fil16" d="M3218.72 4356.5c-4.97,-72.08 -24.08,-162.24 -101.59,-188.16l-11.8 -3.95 -6.19 -9.27c-8.32,-4.61 -36.95,-2.19 -45.59,-1.11 -26.97,3.37 -54.27,6.18 -80.94,11.52 -26.89,5.38 -53.66,14.74 -79.85,22.92 -21.64,6.76 -52.81,18.39 -75.37,21.06 -99.31,30.95 -199.54,58.86 -299.76,86.7 -204.79,56.89 -409.33,115.27 -611.01,182.49l-0.42 0.14 -1.71 0.49c-110.98,29.6 -219.41,69.79 -326.79,110.31 -91.64,34.58 -183.26,69.21 -274.98,103.6l-0.58 0.21c-176.33,60.67 -357.52,112.48 -541.25,145.1 -218.61,38.81 -455.7,52.79 -672.96,-0.93l-9.79 -2.42 -7.16 -7.12c-23.9,-23.8 -12.86,-54.48 7.92,-75.27l13.28 -13.29 18.53 3.17c211.19,36.15 425.19,33.73 635.43,-7.8 248.71,-49.12 492.7,-127.02 730.76,-213.37 163.03,-59.14 327.6,-113.94 492.48,-167.68 225.71,-73.57 452.23,-144.63 678.99,-214.86 98.54,-30.52 196.51,-62.86 294.38,-95.46l0.54 -0.18 0.55 -0.15c72.65,-20.18 164.85,-39.35 239.63,-24.5l1.37 0.27 1.37 0.38c84.26,23.44 146.75,75.9 185.8,154 38.92,77.84 52.91,163.19 47.51,249.69l-0.05 0.64c-6.64,72.9 -23.32,145.94 -40.24,217.1l-12.9 180.61c-6.5,69.34 -12.76,138.7 -17.84,208.15 -0.01,0.16 -0.03,0.32 -0.04,0.48 45.19,-95.4 94.99,-188.62 149.79,-278.86l0.25 -0.4c103.87,-163.22 222.94,-319.37 363.8,-452.55 30.98,-29.29 63.72,-57.04 98.54,-81.67 62.75,-44.38 135.91,-81.05 213.6,-87.17 56.83,-4.47 110.98,8.12 160.46,36.33l1.06 0.6 1.02 0.67c150.78,99.04 96.79,343.3 54.61,486.22 -1.49,5.07 -3,10.13 -4.51,15.19 37.19,-51.54 75.68,-102.14 116.04,-151.19 107.5,-147.18 255.58,-315.85 428,-385.06 71.97,-33.07 147.81,-41.77 222.73,-12.46 74.74,29.25 126.13,85.93 159.06,157.99 67.04,146.65 57.29,321.64 26.32,476.47 -14.95,68.4 -29.18,137.09 -39.33,206.39 -4.78,32.65 -11.43,75.44 -7.77,108.33l0.1 1.05 0.07 1.29c3.02,75.88 19.34,177.99 102.52,205.75l11.81 3.94 6.19 9.28c8.33,4.61 36.95,2.19 45.59,1.11 26.97,-3.37 54.27,-6.18 80.93,-11.52 3.04,-0.61 6.05,-1.3 9.06,-2.05 2.98,-11.04 4.19,-22.51 4.19,-33.95 0,-21.46 1.6,-42.9 4.26,-64.18 2.12,-16.96 3.69,-34.11 3.69,-51.21l0 -4.53 1.12 -4.39c7.05,-27.57 7.76,-63.33 10.46,-92.01 7.18,-76.14 13.67,-152.35 20.39,-228.54 10.13,-114.75 21.02,-229.81 39.89,-343.5 4.34,-51.62 10.47,-104.99 24.53,-154.94 8.47,-45.92 23.81,-103.14 57.49,-136.82 18.43,-18.43 43.69,-17.8 65.75,-6.81l9.52 4.74 5.45 9.12c25.12,42.09 29.03,105.69 29.03,153.93 0,54.06 -3.91,108.07 -8.06,161.94 -8.57,111.41 -15.93,222.9 -23.9,334.35l-0.04 0.49c-6.5,69.34 -12.76,138.7 -17.84,208.16 -0.01,0.16 -0.02,0.32 -0.04,0.47 45.19,-95.4 94.99,-188.61 149.78,-278.86l0.25 -0.4c103.87,-163.22 222.94,-319.36 363.8,-452.54 30.82,-29.14 63.38,-56.73 98.01,-81.24 62.56,-44.28 135.4,-80.82 212.81,-87.25 57.1,-4.73 111.89,7.76 161.73,35.93l1.16 0.68 1.11 0.72c149.89,99.92 96.73,342.95 54.48,486.14 -1.49,5.08 -3,10.15 -4.52,15.22 37.21,-51.54 75.7,-102.16 116.06,-151.21 107.51,-147.18 255.57,-315.86 428,-385.06 71.96,-33.08 147.82,-41.78 222.73,-12.46 74.74,29.25 126.12,85.94 159.06,157.99 67.04,146.65 57.29,321.65 26.32,476.47 -14.96,68.4 -29.19,137.09 -39.33,206.4 -4.78,32.65 -11.43,75.44 -7.8,108.11l0.13 1.16 0.07 1.41c3.02,75.93 19.39,177.9 102.54,205.74l11.81 3.95 6.18 9.27c8.32,4.61 36.94,2.18 45.58,1.1 26.97,-3.37 54.27,-6.18 80.94,-11.51 26.9,-5.38 53.67,-14.74 79.85,-22.93 21.63,-6.76 52.81,-18.39 75.37,-21.07 99.31,-30.95 199.54,-58.85 299.77,-86.69 204.78,-56.89 409.33,-115.27 611,-182.5l1.82 -0.55 0.31 -0.08c110.98,-29.6 219.42,-69.78 326.8,-110.3 91.64,-34.58 183.26,-69.22 274.97,-103.61l0.58 -0.21c176.5,-60.73 357.92,-112.51 541.85,-145.07 218.43,-38.67 455.23,-52.54 672.34,0.9l9.82 2.42 7.16 7.14c23.88,23.8 12.85,54.47 -7.92,75.26l-13.28 13.29 -18.53 -3.17c-211.18,-36.17 -425.19,-33.73 -635.42,7.79 -248.71,49.13 -492.71,127.02 -730.77,213.37 -163.03,59.14 -327.6,113.93 -492.47,167.66 -225.71,73.56 -452.23,144.63 -678.99,214.86 -98.54,30.52 -196.52,62.88 -294.39,95.47l-0.54 0.18 -0.55 0.15c-72.65,20.19 -164.84,39.35 -239.63,24.5l-1.41 -0.28 -1.4 -0.39c-84.09,-23.75 -146.66,-75.87 -185.71,-153.98 -38.92,-77.84 -52.92,-163.19 -47.51,-249.68l0.05 -0.64c8.18,-89.84 30.81,-180.73 52.67,-268.14 20.57,-82.26 42.69,-176.83 42.69,-261.75 0,-66.14 -7.77,-146.15 -42.15,-203.44 -64.03,-101.39 -158.5,-72.01 -245.31,-19.93l-0.41 0.24c-141.86,81.06 -280.71,250.44 -378.52,379.67 -91.95,127.32 -180.52,257.06 -268.61,387.07 -35.75,71.31 -75.37,140.73 -119.55,207.17 -15.54,28.02 -45.9,33.31 -74.54,23.76 -31.9,-10.64 -53.15,-39.1 -37.91,-72.5 33.12,-88.31 66,-176.71 98.92,-265.1 37.85,-101.59 75.49,-203.67 105.48,-307.9 1.22,-12.41 5.61,-25.66 9.57,-37.29 15.43,-45.34 29.56,-91.53 37.85,-138.77 8.04,-45.85 14.23,-114.64 -15.7,-154.25 -15.71,-20.8 -38.85,-30 -64.09,-33.29 -141.6,-18.47 -305.41,152.93 -389.6,250.34 -105.07,121.56 -198.49,252.88 -278.48,392.24 -75.3,131.17 -139.91,268.33 -193.9,409.59l6.68 28.73 -19.69 6.36c-5.96,46.75 -22.48,92.68 -60.68,122.76l-1.1 0.87 -1.17 0.79c-32.22,21.84 -67.24,14.07 -93.7,-12.4 -14.55,-14.55 -24.72,-31.99 -31.57,-50.93 -70.55,18.89 -156.68,35.57 -227.21,21.04l-1.31 -0.27 -1.3 -0.36c-84.18,-23.6 -146.71,-75.89 -185.76,-154 -38.92,-77.84 -52.91,-163.19 -47.5,-249.68l0.05 -0.63c8.17,-89.84 30.82,-180.74 52.67,-268.15 20.57,-82.27 42.69,-176.84 42.69,-261.76 0,-66.14 -7.78,-146.13 -42.14,-203.43 -64.04,-101.39 -158.51,-72.01 -245.33,-19.94l-0.41 0.24c-141.85,81.08 -280.7,250.44 -378.51,379.69 -91.96,127.32 -180.52,257.05 -268.61,387.07 -35.75,71.31 -75.37,140.74 -119.56,207.17 -15.54,28.03 -45.9,33.3 -74.54,23.75 -31.9,-10.65 -53.14,-39.08 -37.9,-72.49 33.12,-88.31 65.99,-176.72 98.92,-265.1 37.85,-101.59 75.49,-203.67 105.47,-307.91 1.23,-12.41 5.61,-25.67 9.57,-37.3 15.43,-45.34 29.57,-91.54 37.85,-138.78 8.04,-45.85 14.22,-114.65 -15.71,-154.26 -15.71,-20.79 -38.84,-29.98 -64.07,-33.27 -84.53,-11.02 -174.12,46.81 -236.54,97.76 -55.66,45.43 -106.09,98.36 -153.08,152.62 -212.64,245.57 -373.24,531.95 -485.29,836.26 -5.91,46.88 -22.77,92.59 -60.52,123.2l-1.31 1.06 -1.41 0.93c-32.31,21.37 -67.06,13.9 -93.51,-12.55 -42.19,-42.2 -47.15,-107.74 -42.32,-164.02l0.37 -4.27 1.35 -4.09c4.3,-12.99 6.12,-26.63 6.12,-40.29 0,-38.76 7.96,-76.88 7.96,-115.4l0 -4.47 1.09 -4.34c3.42,-13.65 4.4,-29.58 5.98,-43.62 3.72,-33.23 6.82,-66.54 9.84,-99.84 -7.88,-94.81 2.45,-191.5 21.14,-284.91 3.17,-14.52 6.29,-29.05 9.34,-43.6 6.95,-64.19 13.93,-128.47 24.48,-192.19 2.79,-33.09 6.47,-66.14 12.16,-98.87z"/>
   <path class="fil17" d="M3783.79 6345.32c0,-19.19 3.06,-36.79 9.2,-52.78 6.13,-15.99 14.79,-29.72 25.99,-41.19 11.19,-11.47 24.39,-20.26 39.59,-26.39 15.19,-6.14 31.6,-9.19 49.19,-9.19 36.79,0 65.05,11.19 84.78,33.58 19.73,22.4 29.59,52.79 29.59,91.18l0 241.53 61.58 0 0 -256.72c0,-24.53 -3.6,-46.92 -10.79,-67.18 -7.2,-20.26 -17.6,-37.72 -31.19,-52.39 -13.59,-14.66 -30.13,-25.99 -49.59,-33.99 -19.46,-8 -41.71,-11.99 -66.78,-11.99 -35.72,0 -64.77,7.86 -87.18,23.59 -22.39,15.73 -40.52,34.79 -54.38,57.19l0 -71.98 -61.58 0 0 413.48 61.58 0 0 -236.73zm999.32 -127.96c38.93,0 69.18,9.46 90.77,28.39 21.59,18.93 32.38,47.06 32.38,84.38l0 14.39c-18.66,-5.33 -37.85,-9.59 -57.58,-12.79 -19.73,-3.2 -42.92,-4.8 -69.58,-4.8 -26.12,0 -49.99,2.93 -71.58,8.79 -21.59,5.86 -40.25,14.4 -55.99,25.59 -15.73,11.2 -27.85,25.19 -36.38,41.99 -8.54,16.8 -12.8,36.13 -12.8,57.98 0,21.86 4.4,40.79 13.2,56.78 8.8,16 20.53,29.46 35.19,40.39 14.66,10.92 31.19,19.06 49.58,24.39 18.39,5.33 37.19,8 56.39,8 36.79,0 67.31,-7.2 91.57,-21.59 24.26,-14.4 43.59,-30.93 57.98,-49.59l0 62.38 59.19 0 0 -252.73c0,-54.92 -15.2,-96.37 -45.58,-124.36 -30.39,-28 -73.85,-42 -130.36,-42 -30.39,0 -57.32,3.07 -80.77,9.2 -23.46,6.13 -46.65,14.53 -69.58,25.19l18.39 50.39c19.2,-9.07 38.79,-16.4 58.78,-22 20,-5.6 42.25,-8.39 66.78,-8.39zm2.8 155.15c25.46,0 48.26,1.86 68.11,5.6 20,3.73 37.59,7.73 53.05,11.99l0 39.99c0,16.54 -3.6,31.6 -10.8,45.19 -7.2,13.59 -16.92,25.32 -29.45,35.19 -12.53,9.86 -27.06,17.59 -43.86,23.19 -16.66,5.6 -34.65,8.39 -53.85,8.39 -13.73,0 -26.92,-1.86 -39.45,-5.6 -12.4,-3.73 -23.46,-9.2 -33.06,-16.4 -9.46,-7.2 -17.06,-15.86 -22.65,-25.99 -5.6,-10.13 -8.4,-21.86 -8.4,-35.18 0,-26.67 10.4,-47.73 31.05,-63.18 20.8,-15.46 50.52,-23.19 89.31,-23.19zm801.38 -294.32l0 -67.98 -70.38 0 0 67.98 70.38 0zm-4.8 503.85l0 -413.48 -61.58 0 0 413.48 61.58 0zm629.02 0l0 -583.83 -61.58 0 0 583.83 61.58 0zm845.76 -115.96l0 -1.6c0,-18.66 -3.87,-34.39 -11.59,-47.19 -7.73,-12.79 -17.99,-23.72 -30.8,-32.79 -12.79,-9.06 -27.05,-16.53 -42.79,-22.39 -15.73,-5.87 -31.59,-11.2 -47.58,-15.99 -13.86,-4.26 -27.2,-8.53 -39.99,-12.79 -12.79,-4.26 -24.13,-9.07 -33.99,-14.39 -9.87,-5.33 -17.73,-11.6 -23.59,-18.8 -5.87,-7.2 -8.79,-15.59 -8.79,-25.19l0 -1.6c0,-17.06 7.2,-31.32 21.59,-42.79 14.39,-11.46 33.85,-17.19 58.38,-17.19 20.26,0 40.92,3.6 61.99,10.79 21.06,7.2 41.18,16.93 60.38,29.19l27.99 -46.38c-21.32,-13.86 -45.05,-24.93 -71.18,-33.19 -26.13,-8.27 -51.98,-12.4 -77.57,-12.4 -20.26,0 -39.05,2.8 -56.38,8.39 -17.32,5.6 -32.26,13.59 -44.78,23.99 -12.53,10.4 -22.27,22.92 -29.19,37.59 -6.94,14.66 -10.4,30.79 -10.4,48.39l0 1.59c0,19.2 4.13,35.19 12.39,47.99 8.27,12.8 18.93,23.46 31.99,31.99 13.06,8.53 27.73,15.6 43.99,21.2 16.26,5.6 32.39,10.8 48.39,15.59 13.32,3.73 26.25,7.74 38.78,12 12.53,4.26 23.6,9.19 33.19,14.8 9.6,5.6 17.2,12.13 22.8,19.59 5.59,7.46 8.39,16.26 8.39,26.39l0 1.6c0,20.26 -8,36.25 -23.99,47.99 -15.99,11.73 -36.52,17.6 -61.59,17.6 -24.53,0 -48.91,-4.53 -73.18,-13.6 -24.25,-9.06 -47.58,-22.12 -69.97,-39.19l-31.19 43.99c23.45,18.66 50.38,33.46 80.77,44.39 30.39,10.93 60.52,16.39 90.38,16.39 20.79,0 40.12,-2.8 57.98,-8.39 17.86,-5.61 33.32,-13.74 46.38,-24.4 13.06,-10.66 23.46,-23.59 31.19,-38.78 7.73,-15.19 11.59,-32.66 11.59,-52.38z"/>
   <path class="fil15" d="M5599.59 5215.49c16.74,-7.13 35.41,-6.84 52.19,0.61 16.4,7.29 28.89,20.53 35.55,37.18l5.19 12.98 -1.63 13.88c-0.06,0.49 -0.12,0.99 -0.18,1.49 15.23,-7.67 32.76,-8.6 49.19,-3.13 16.02,5.33 28.99,16.28 37.64,30.69l5.2 8.66 1.78 9.94c10.32,57.51 9.92,116.61 -9.55,172.23 -18.28,52.23 -51.18,94.7 -100.54,117.85 -22.52,11.26 -47.23,16.36 -72.28,17.27 -12.89,0.47 -25.68,-0.33 -38.33,-2.22 -14.69,19.63 -30.88,38.22 -48.83,54.7 -23.05,21.16 -48.77,39.98 -77.22,53.25l-0.92 0.42c-47.1,20.94 -97.26,26.67 -146.36,8.71 -47.63,-17.41 -82.23,-51.62 -103.64,-97.4 -13.06,-27.93 -19.41,-58.56 -21.76,-89.16 -2.72,-35.43 1.23,-71.19 9.04,-105.76 8.97,-39.71 23.33,-78.42 40.25,-115.38 17.63,-38.47 39.53,-75.17 63.68,-109.99 -1.07,-31.24 0.13,-62.67 2.63,-93.75 3.34,-41.56 10.06,-82.77 20.35,-123.18 10.05,-39.43 24.55,-77.69 44.77,-113.07 20.93,-36.63 49.96,-66.67 88.62,-84.41 26.94,-12.37 56.39,-16.34 85.14,-8.13 31.11,8.89 54.13,30.52 68,59.5l0.44 0.92 0.4 0.94c14.53,33.54 15.83,69.3 7.12,104.61 -8.04,32.61 -21.46,63.8 -37.77,93.09 -17.45,31.33 -37.49,61.22 -59.22,89.73 -20.77,27.24 -41.59,54.46 -62.85,81.32l-6.35 8.02c2.16,20.99 5.51,41.84 10.11,62.44 5.5,24.63 13.12,48.92 23.84,71.8 11.47,24.48 26.21,47.06 43.77,67.59 2.16,2.53 4.38,5 6.65,7.42 6.19,-15.49 11.74,-31.23 16.78,-46.99 14.4,-44.98 22.79,-92.6 28.06,-139.46 2.8,-24.91 17.79,-45.99 41.04,-55.22z"/>
   <path class="fil18" d="M5617.34 5258.63c5.03,-2.32 10.42,-2.16 15.51,0.1 5.29,2.35 9.04,6.52 11.18,11.88l0.79 1.98 -0.24 2.12c-6.25,53.08 -15.85,106.76 -31.7,157.86 -11.92,38.45 -27.1,76.29 -46.83,111.46 11.28,3.29 23.12,5.32 34.75,4.75 12.54,-0.61 24.68,-3.33 36.09,-8.64 29.78,-13.86 47.06,-40.51 57.29,-70.89 13.23,-39.34 12.81,-80.98 5.01,-121.38 -3.06,-10.83 1.46,-19.71 11.66,-24.11 4.42,-2.58 9.48,-2.61 14.33,-0.99 5.42,1.8 9.49,5.61 12.39,10.45l0.79 1.32 0.27 1.52c8.87,49.44 9.09,100.73 -7.66,148.59 -14.1,40.27 -38.44,73.26 -77.38,91.54 -16.48,8.24 -34.82,11.72 -53.13,12.39 -19.33,0.7 -38.45,-2.33 -56.9,-7.88 -17.25,26.13 -37.07,51.46 -60.1,72.61 -19.49,17.89 -41.34,34.12 -65.54,45.41 -35.91,15.96 -73.84,21.27 -111.41,7.54 -36.02,-13.17 -61.24,-38.78 -77.41,-73.36 -10.62,-22.72 -15.58,-48.1 -17.5,-72.99 -2.36,-30.73 1.25,-61.93 8.02,-91.91 8.25,-36.53 21.59,-72.24 37.16,-106.24 18.63,-40.69 42.5,-79.29 68.62,-115.6 -2.11,-34.49 -1,-69.42 1.77,-103.83 3.13,-38.93 9.41,-77.55 19.06,-115.41 9,-35.35 21.94,-69.73 40.06,-101.45 16.05,-28.08 37.88,-51.54 67.59,-65.17 16.76,-7.69 34.9,-10.8 52.87,-5.67 18.19,5.2 30.68,17.93 38.87,35.06 10.45,24.11 10.88,49.57 4.63,74.9 -7.04,28.54 -18.96,55.93 -33.23,81.56 -16.37,29.38 -35.19,57.42 -55.57,84.15 -20.6,27.02 -41.23,54.02 -62.32,80.65l-17.85 22.56c2.1,29.27 6.26,58.37 12.67,87.02 6.25,27.96 14.95,55.45 27.12,81.42 13.24,28.27 30.27,54.4 50.55,78.12 17.12,20.02 36.93,37.11 59.78,50.05 17.85,-33.62 31.93,-69.54 43.5,-105.72 15.34,-47.94 24.37,-98.51 29.98,-148.46 0.89,-7.87 4.85,-14.51 12.45,-17.29zm-109.94 309.32c-29.66,-14.05 -55.68,-33.37 -77.7,-58.02 -24.93,-27.91 -44.84,-59.64 -60.4,-93.46 -9.82,-20.41 -17.67,-41.79 -24.03,-63.52 -4.38,-14.98 -8.15,-30.15 -11.25,-45.44 -15.3,27.83 -29.18,56.67 -40.29,86.3 -10.96,29.24 -20.35,59.73 -25.74,90.53 -4.17,23.84 -6.23,48.81 -3.58,72.95 2.05,18.69 6.25,37.78 14.47,54.98 11,24.31 27.67,43.57 53.51,51.95 26.38,8.55 52.87,3.45 77.56,-7.99 19.05,-8.84 36.31,-21.49 51.7,-35.69 17,-15.67 32.15,-33.79 45.75,-52.58zm-122.14 -399.86c15.01,-19 29.86,-38.14 44.54,-57.39 18.84,-24.68 36.34,-50.48 51.67,-77.49 12.61,-22.23 23.75,-46.1 30.58,-70.78 4.99,-18.01 6.01,-37.03 -1.59,-54.32 -7.67,-15.91 -17.72,-19.93 -33.75,-12.75 -18.43,8.84 -31.92,25.71 -41.84,43.13 -13.68,24.04 -23.87,50.16 -31.66,76.66 -8.91,30.29 -14.91,61.38 -18.54,92.73 -2.3,19.91 -3.89,39.95 -4.52,60.01l5.1 -9.17 0 9.38z"/>
  </g>
 </g>
</svg>
